%
M48
M72
T01C0.0150
T02C0.0400
T03C0.1300
%
T01
X7350Y8333
X8350Y9333
X7600Y9933
X8350Y10333
X7350Y10833
X6380Y10933
X6100Y11833
X6850Y12793
X6090Y13003
X5350Y12833
X4350Y13333
X6350Y13833
X7850Y12833
X8650Y12433
X7850Y11833
X9350Y10833
X10300Y12133
X10350Y13333
X14050Y9333
X14550Y10333
X14550Y10983
X16300Y11833
X16580Y10933
X17550Y10833
X17800Y9933
X18550Y10333
X18550Y9333
X17550Y8333
X16240Y9583
X18050Y11833
X18850Y12433
X18050Y12833
X17050Y12793
X16290Y13003
X15550Y12833
X14550Y13333
X16550Y13833
X19550Y10833
X20500Y12133
X20550Y13333
X24250Y9333
X24750Y10333
X24750Y10983
X25750Y12833
X26490Y13003
X27250Y12793
X28250Y12833
X28250Y11833
X29050Y12433
X30700Y12133
X30750Y13333
X29750Y10833
X28750Y10333
X28000Y9933
X27750Y10833
X26780Y10933
X26500Y11833
X26750Y13833
X24750Y13333
X26440Y9583
X27750Y8333
X28750Y9333
X27750Y18533
X28750Y19533
X28000Y20133
X28750Y20533
X29750Y21033
X30700Y22333
X30750Y23533
X29050Y22633
X28250Y23033
X27250Y22993
X26490Y23203
X25750Y23033
X26750Y24033
X26500Y22033
X26780Y21133
X27750Y21033
X28250Y22033
X26440Y19783
X24750Y20533
X24750Y21183
X24250Y19533
X24750Y23533
X20550Y23533
X20500Y22333
X19550Y21033
X18550Y20533
X17800Y20133
X18550Y19533
X17550Y18533
X16240Y19783
X16580Y21133
X16300Y22033
X17050Y22993
X16290Y23203
X15550Y23033
X14550Y23533
X16550Y24033
X18050Y23033
X18850Y22633
X18050Y22033
X17550Y21033
X14550Y21183
X14550Y20533
X14050Y19533
X10300Y22333
X10350Y23533
X8650Y22633
X7850Y23033
X7850Y22033
X7350Y21033
X6380Y21133
X6100Y22033
X6850Y22993
X6090Y23203
X5350Y23033
X4350Y23533
X6350Y24033
X4350Y21183
X4350Y20533
X3850Y19533
X6040Y19783
X7600Y20133
X8350Y20533
X8350Y19533
X7350Y18533
X9350Y21033
X7350Y28733
X8350Y29733
X7600Y30333
X8350Y30733
X7350Y31233
X6380Y31333
X6100Y32233
X6090Y33403
X5350Y33233
X4350Y33733
X6350Y34233
X6850Y33193
X7850Y33233
X8650Y32833
X7850Y32233
X9350Y31233
X10300Y32533
X10350Y33733
X14050Y29733
X14550Y30733
X14550Y31383
X16300Y32233
X16580Y31333
X17550Y31233
X17800Y30333
X18550Y30733
X18550Y29733
X17550Y28733
X16240Y29983
X18050Y32233
X18850Y32833
X18050Y33233
X17050Y33193
X16290Y33403
X15550Y33233
X14550Y33733
X16550Y34233
X19550Y31233
X20500Y32533
X20550Y33733
X24250Y29733
X24750Y30733
X24750Y31383
X26500Y32233
X26780Y31333
X27750Y31233
X28000Y30333
X28750Y30733
X29750Y31233
X30700Y32533
X30750Y33733
X29050Y32833
X28250Y33233
X27250Y33193
X26490Y33403
X25750Y33233
X26750Y34233
X24750Y33733
X28250Y32233
X26440Y29983
X27750Y28733
X28750Y29733
X6040Y29983
X4350Y30733
X4350Y31383
X3850Y29733
X4350Y10983
X4350Y10333
X3850Y9333
X6040Y9583
T02
X4850Y7333
X5850Y7333
X6850Y7333
X7850Y7333
X8850Y7333
X9850Y7333
X10850Y7333
X15050Y7333
X16050Y7333
X17050Y7333
X18050Y7333
X19050Y7333
X20050Y7333
X21050Y7333
X25250Y7333
X26250Y7333
X27250Y7333
X28250Y7333
X29250Y7333
X30250Y7333
X31250Y7333
X31250Y17533
X30250Y17533
X29250Y17533
X28250Y17533
X27250Y17533
X26250Y17533
X25250Y17533
X21050Y17533
X20050Y17533
X19050Y17533
X18050Y17533
X17050Y17533
X16050Y17533
X15050Y17533
X10850Y17533
X9850Y17533
X8850Y17533
X7850Y17533
X6850Y17533
X5850Y17533
X4850Y17533
X4850Y27733
X5850Y27733
X6850Y27733
X7850Y27733
X8850Y27733
X9850Y27733
X10850Y27733
X15050Y27733
X16050Y27733
X17050Y27733
X18050Y27733
X19050Y27733
X20050Y27733
X21050Y27733
X25250Y27733
X26250Y27733
X27250Y27733
X28250Y27733
X29250Y27733
X30250Y27733
X31250Y27733
T03
X32250Y26033
X24250Y26033
X22050Y26033
X14050Y26033
X11850Y26033
X3850Y26033
X3850Y15833
X11850Y15833
X14050Y15833
X22050Y15833
X24250Y15833
X32250Y15833
X32250Y36233
X24250Y36233
X22050Y36233
X14050Y36233
X11850Y36233
X3850Y36233
M30
