G75*
%MOIN*%
%OFA0B0*%
%FSLAX25Y25*%
%IPPOS*%
%LPD*%
%AMOC8*
5,1,8,0,0,1.08239X$1,22.5*
%
%ADD10R,0.04331X0.03937*%
%ADD11R,0.02756X0.02826*%
%ADD12R,0.01575X0.02756*%
%ADD13R,0.01969X0.01378*%
%ADD14R,0.07874X0.04724*%
%ADD15R,0.05315X0.02362*%
D10*
X0065154Y0095833D03*
X0071846Y0095833D03*
X0071846Y0103333D03*
X0065154Y0103333D03*
X0056846Y0103333D03*
X0050154Y0103333D03*
X0050154Y0133333D03*
X0056846Y0133333D03*
X0065154Y0133333D03*
X0071846Y0133333D03*
X0090154Y0133333D03*
X0096846Y0133333D03*
X0096846Y0103333D03*
X0090154Y0103333D03*
X0090154Y0095833D03*
X0096846Y0095833D03*
X0152154Y0103333D03*
X0158846Y0103333D03*
X0167154Y0103333D03*
X0173846Y0103333D03*
X0173846Y0095833D03*
X0167154Y0095833D03*
X0192154Y0095833D03*
X0198846Y0095833D03*
X0198846Y0103333D03*
X0192154Y0103333D03*
X0192154Y0133333D03*
X0198846Y0133333D03*
X0173846Y0133333D03*
X0167154Y0133333D03*
X0158846Y0133333D03*
X0152154Y0133333D03*
X0167154Y0197833D03*
X0167154Y0205333D03*
X0173846Y0205333D03*
X0173846Y0197833D03*
X0158846Y0205333D03*
X0152154Y0205333D03*
X0152154Y0235333D03*
X0158846Y0235333D03*
X0167154Y0235333D03*
X0173846Y0235333D03*
X0192154Y0235333D03*
X0198846Y0235333D03*
X0198846Y0205333D03*
X0198846Y0197833D03*
X0192154Y0197833D03*
X0192154Y0205333D03*
X0254154Y0205333D03*
X0260846Y0205333D03*
X0269154Y0205333D03*
X0269154Y0197833D03*
X0275846Y0197833D03*
X0275846Y0205333D03*
X0294154Y0205333D03*
X0300846Y0205333D03*
X0300846Y0197833D03*
X0294154Y0197833D03*
X0294154Y0235333D03*
X0300846Y0235333D03*
X0275846Y0235333D03*
X0269154Y0235333D03*
X0260846Y0235333D03*
X0254154Y0235333D03*
X0269154Y0299833D03*
X0275846Y0299833D03*
X0275846Y0307333D03*
X0269154Y0307333D03*
X0260846Y0307333D03*
X0254154Y0307333D03*
X0254154Y0337333D03*
X0260846Y0337333D03*
X0269154Y0337333D03*
X0275846Y0337333D03*
X0294154Y0337333D03*
X0300846Y0337333D03*
X0300846Y0307333D03*
X0294154Y0307333D03*
X0294154Y0299833D03*
X0300846Y0299833D03*
X0198846Y0299833D03*
X0192154Y0299833D03*
X0192154Y0307333D03*
X0198846Y0307333D03*
X0173846Y0307333D03*
X0167154Y0307333D03*
X0167154Y0299833D03*
X0173846Y0299833D03*
X0158846Y0307333D03*
X0152154Y0307333D03*
X0152154Y0337333D03*
X0158846Y0337333D03*
X0167154Y0337333D03*
X0173846Y0337333D03*
X0192154Y0337333D03*
X0198846Y0337333D03*
X0096846Y0337333D03*
X0090154Y0337333D03*
X0071846Y0337333D03*
X0065154Y0337333D03*
X0056846Y0337333D03*
X0050154Y0337333D03*
X0050154Y0307333D03*
X0056846Y0307333D03*
X0065154Y0307333D03*
X0071846Y0307333D03*
X0071846Y0299833D03*
X0065154Y0299833D03*
X0090154Y0299833D03*
X0096846Y0299833D03*
X0096846Y0307333D03*
X0090154Y0307333D03*
X0090154Y0235333D03*
X0096846Y0235333D03*
X0071846Y0235333D03*
X0065154Y0235333D03*
X0056846Y0235333D03*
X0050154Y0235333D03*
X0050154Y0205333D03*
X0056846Y0205333D03*
X0065154Y0205333D03*
X0065154Y0197833D03*
X0071846Y0197833D03*
X0071846Y0205333D03*
X0090154Y0205333D03*
X0090154Y0197833D03*
X0096846Y0197833D03*
X0096846Y0205333D03*
X0254154Y0133333D03*
X0260846Y0133333D03*
X0269154Y0133333D03*
X0275846Y0133333D03*
X0294154Y0133333D03*
X0300846Y0133333D03*
X0300846Y0103333D03*
X0294154Y0103333D03*
X0294154Y0095833D03*
X0300846Y0095833D03*
X0275846Y0095833D03*
X0269154Y0095833D03*
X0269154Y0103333D03*
X0275846Y0103333D03*
X0260846Y0103333D03*
X0254154Y0103333D03*
D11*
X0272303Y0118333D03*
X0272303Y0220333D03*
X0272303Y0322333D03*
X0170303Y0322333D03*
X0170303Y0220333D03*
X0170303Y0118333D03*
X0068303Y0118333D03*
X0068303Y0220333D03*
X0068303Y0322333D03*
D12*
X0068500Y0318003D03*
X0066138Y0318003D03*
X0063776Y0318003D03*
X0070862Y0318003D03*
X0073224Y0318003D03*
X0073224Y0326664D03*
X0070862Y0326664D03*
X0068500Y0326664D03*
X0066138Y0326664D03*
X0063776Y0326664D03*
X0063776Y0224664D03*
X0066138Y0224664D03*
X0068500Y0224664D03*
X0070862Y0224664D03*
X0073224Y0224664D03*
X0073224Y0216003D03*
X0070862Y0216003D03*
X0068500Y0216003D03*
X0066138Y0216003D03*
X0063776Y0216003D03*
X0063776Y0122664D03*
X0066138Y0122664D03*
X0068500Y0122664D03*
X0070862Y0122664D03*
X0073224Y0122664D03*
X0073224Y0114003D03*
X0070862Y0114003D03*
X0068500Y0114003D03*
X0066138Y0114003D03*
X0063776Y0114003D03*
X0165776Y0114003D03*
X0168138Y0114003D03*
X0170500Y0114003D03*
X0172862Y0114003D03*
X0175224Y0114003D03*
X0175224Y0122664D03*
X0172862Y0122664D03*
X0170500Y0122664D03*
X0168138Y0122664D03*
X0165776Y0122664D03*
X0165776Y0216003D03*
X0168138Y0216003D03*
X0170500Y0216003D03*
X0172862Y0216003D03*
X0175224Y0216003D03*
X0175224Y0224664D03*
X0172862Y0224664D03*
X0170500Y0224664D03*
X0168138Y0224664D03*
X0165776Y0224664D03*
X0165776Y0318003D03*
X0168138Y0318003D03*
X0170500Y0318003D03*
X0172862Y0318003D03*
X0175224Y0318003D03*
X0175224Y0326664D03*
X0172862Y0326664D03*
X0170500Y0326664D03*
X0168138Y0326664D03*
X0165776Y0326664D03*
X0267776Y0326664D03*
X0270138Y0326664D03*
X0272500Y0326664D03*
X0274862Y0326664D03*
X0277224Y0326664D03*
X0277224Y0318003D03*
X0274862Y0318003D03*
X0272500Y0318003D03*
X0270138Y0318003D03*
X0267776Y0318003D03*
X0267776Y0224664D03*
X0270138Y0224664D03*
X0272500Y0224664D03*
X0274862Y0224664D03*
X0277224Y0224664D03*
X0277224Y0216003D03*
X0274862Y0216003D03*
X0272500Y0216003D03*
X0270138Y0216003D03*
X0267776Y0216003D03*
X0267776Y0122664D03*
X0270138Y0122664D03*
X0272500Y0122664D03*
X0274862Y0122664D03*
X0277224Y0122664D03*
X0277224Y0114003D03*
X0274862Y0114003D03*
X0272500Y0114003D03*
X0270138Y0114003D03*
X0267776Y0114003D03*
D13*
X0293465Y0114495D03*
X0293465Y0117054D03*
X0293465Y0119613D03*
X0293465Y0122172D03*
X0301535Y0122172D03*
X0301535Y0119613D03*
X0301535Y0117054D03*
X0301535Y0114495D03*
X0301535Y0216495D03*
X0301535Y0219054D03*
X0301535Y0221613D03*
X0301535Y0224172D03*
X0293465Y0224172D03*
X0293465Y0221613D03*
X0293465Y0219054D03*
X0293465Y0216495D03*
X0199535Y0216495D03*
X0199535Y0219054D03*
X0199535Y0221613D03*
X0199535Y0224172D03*
X0191465Y0224172D03*
X0191465Y0221613D03*
X0191465Y0219054D03*
X0191465Y0216495D03*
X0191465Y0122172D03*
X0191465Y0119613D03*
X0191465Y0117054D03*
X0191465Y0114495D03*
X0199535Y0114495D03*
X0199535Y0117054D03*
X0199535Y0119613D03*
X0199535Y0122172D03*
X0097535Y0122172D03*
X0097535Y0119613D03*
X0097535Y0117054D03*
X0097535Y0114495D03*
X0089465Y0114495D03*
X0089465Y0117054D03*
X0089465Y0119613D03*
X0089465Y0122172D03*
X0089465Y0216495D03*
X0089465Y0219054D03*
X0089465Y0221613D03*
X0089465Y0224172D03*
X0097535Y0224172D03*
X0097535Y0221613D03*
X0097535Y0219054D03*
X0097535Y0216495D03*
X0097535Y0318495D03*
X0097535Y0321054D03*
X0097535Y0323613D03*
X0097535Y0326172D03*
X0089465Y0326172D03*
X0089465Y0323613D03*
X0089465Y0321054D03*
X0089465Y0318495D03*
X0191465Y0318495D03*
X0191465Y0321054D03*
X0191465Y0323613D03*
X0191465Y0326172D03*
X0199535Y0326172D03*
X0199535Y0323613D03*
X0199535Y0321054D03*
X0199535Y0318495D03*
X0293465Y0318495D03*
X0293465Y0321054D03*
X0293465Y0323613D03*
X0293465Y0326172D03*
X0301535Y0326172D03*
X0301535Y0323613D03*
X0301535Y0321054D03*
X0301535Y0318495D03*
D14*
X0326969Y0311310D03*
X0326969Y0333357D03*
X0238031Y0333357D03*
X0224969Y0333357D03*
X0224969Y0311310D03*
X0238031Y0311310D03*
X0238031Y0231357D03*
X0224969Y0231357D03*
X0224969Y0209310D03*
X0238031Y0209310D03*
X0238031Y0129357D03*
X0224969Y0129357D03*
X0224969Y0107310D03*
X0238031Y0107310D03*
X0326969Y0107310D03*
X0326969Y0129357D03*
X0326969Y0209310D03*
X0326969Y0231357D03*
X0136031Y0231357D03*
X0122969Y0231357D03*
X0122969Y0209310D03*
X0136031Y0209310D03*
X0136031Y0129357D03*
X0122969Y0129357D03*
X0122969Y0107310D03*
X0136031Y0107310D03*
X0034031Y0107310D03*
X0034031Y0129357D03*
X0034031Y0209310D03*
X0034031Y0231357D03*
X0034031Y0311310D03*
X0034031Y0333357D03*
X0122969Y0333357D03*
X0136031Y0333357D03*
X0136031Y0311310D03*
X0122969Y0311310D03*
D15*
X0108500Y0316428D03*
X0108500Y0320365D03*
X0108500Y0324302D03*
X0108500Y0328239D03*
X0150500Y0328239D03*
X0150500Y0324302D03*
X0150500Y0320365D03*
X0150500Y0316428D03*
X0210500Y0316428D03*
X0210500Y0320365D03*
X0210500Y0324302D03*
X0210500Y0328239D03*
X0252500Y0328239D03*
X0252500Y0324302D03*
X0252500Y0320365D03*
X0252500Y0316428D03*
X0312500Y0316428D03*
X0312500Y0320365D03*
X0312500Y0324302D03*
X0312500Y0328239D03*
X0312500Y0226239D03*
X0312500Y0222302D03*
X0312500Y0218365D03*
X0312500Y0214428D03*
X0252500Y0214428D03*
X0252500Y0218365D03*
X0252500Y0222302D03*
X0252500Y0226239D03*
X0210500Y0226239D03*
X0210500Y0222302D03*
X0210500Y0218365D03*
X0210500Y0214428D03*
X0150500Y0214428D03*
X0150500Y0218365D03*
X0150500Y0222302D03*
X0150500Y0226239D03*
X0108500Y0226239D03*
X0108500Y0222302D03*
X0108500Y0218365D03*
X0108500Y0214428D03*
X0048500Y0214428D03*
X0048500Y0218365D03*
X0048500Y0222302D03*
X0048500Y0226239D03*
X0048500Y0316428D03*
X0048500Y0320365D03*
X0048500Y0324302D03*
X0048500Y0328239D03*
X0048500Y0124239D03*
X0048500Y0120302D03*
X0048500Y0116365D03*
X0048500Y0112428D03*
X0108500Y0112428D03*
X0108500Y0116365D03*
X0108500Y0120302D03*
X0108500Y0124239D03*
X0150500Y0124239D03*
X0150500Y0120302D03*
X0150500Y0116365D03*
X0150500Y0112428D03*
X0210500Y0112428D03*
X0210500Y0116365D03*
X0210500Y0120302D03*
X0210500Y0124239D03*
X0252500Y0124239D03*
X0252500Y0120302D03*
X0252500Y0116365D03*
X0252500Y0112428D03*
X0312500Y0112428D03*
X0312500Y0116365D03*
X0312500Y0120302D03*
X0312500Y0124239D03*
M02*
