G75*
%MOIN*%
%OFA0B0*%
%FSLAX25Y25*%
%IPPOS*%
%LPD*%
%AMOC8*
5,1,8,0,0,1.08239X$1,22.5*
%
%ADD10R,0.05800X0.03300*%
%ADD11C,0.13800*%
%ADD12C,0.00500*%
%ADD13C,0.08200*%
D10*
X0038500Y0114333D03*
X0038500Y0118333D03*
X0038500Y0122333D03*
X0053500Y0119933D03*
X0053500Y0116733D03*
X0098000Y0116733D03*
X0098000Y0119933D03*
X0140500Y0118333D03*
X0140500Y0114333D03*
X0140500Y0122333D03*
X0155500Y0119933D03*
X0155500Y0116733D03*
X0200000Y0116733D03*
X0200000Y0119933D03*
X0242500Y0118333D03*
X0242500Y0114333D03*
X0242500Y0122333D03*
X0257500Y0119933D03*
X0257500Y0116733D03*
X0302000Y0116733D03*
X0302000Y0119933D03*
X0344500Y0118333D03*
X0344500Y0114333D03*
X0344500Y0122333D03*
X0359500Y0119933D03*
X0359500Y0116733D03*
X0404000Y0116733D03*
X0404000Y0119933D03*
X0344500Y0216333D03*
X0344500Y0220333D03*
X0344500Y0224333D03*
X0359500Y0221933D03*
X0359500Y0218733D03*
X0404000Y0218733D03*
X0404000Y0221933D03*
X0302000Y0221933D03*
X0302000Y0218733D03*
X0257500Y0218733D03*
X0257500Y0221933D03*
X0242500Y0220333D03*
X0242500Y0216333D03*
X0242500Y0224333D03*
X0200000Y0221933D03*
X0200000Y0218733D03*
X0155500Y0218733D03*
X0155500Y0221933D03*
X0140500Y0220333D03*
X0140500Y0216333D03*
X0140500Y0224333D03*
X0098000Y0221933D03*
X0098000Y0218733D03*
X0053500Y0218733D03*
X0053500Y0221933D03*
X0038500Y0220333D03*
X0038500Y0216333D03*
X0038500Y0224333D03*
X0038500Y0318333D03*
X0038500Y0322333D03*
X0038500Y0326333D03*
X0053500Y0323933D03*
X0053500Y0320733D03*
X0098000Y0320733D03*
X0098000Y0323933D03*
X0140500Y0322333D03*
X0140500Y0318333D03*
X0140500Y0326333D03*
X0155500Y0323933D03*
X0155500Y0320733D03*
X0200000Y0320733D03*
X0200000Y0323933D03*
X0242500Y0322333D03*
X0242500Y0318333D03*
X0242500Y0326333D03*
X0257500Y0323933D03*
X0257500Y0320733D03*
X0302000Y0320733D03*
X0302000Y0323933D03*
X0344500Y0322333D03*
X0344500Y0318333D03*
X0344500Y0326333D03*
X0359500Y0323933D03*
X0359500Y0320733D03*
X0404000Y0320733D03*
X0404000Y0323933D03*
D11*
X0424500Y0362333D03*
X0344500Y0362333D03*
X0322500Y0362333D03*
X0242500Y0362333D03*
X0220500Y0362333D03*
X0140500Y0362333D03*
X0118500Y0362333D03*
X0038500Y0362333D03*
X0038500Y0260333D03*
X0118500Y0260333D03*
X0140500Y0260333D03*
X0220500Y0260333D03*
X0242500Y0260333D03*
X0322500Y0260333D03*
X0344500Y0260333D03*
X0424500Y0260333D03*
X0424500Y0158333D03*
X0344500Y0158333D03*
X0322500Y0158333D03*
X0242500Y0158333D03*
X0220500Y0158333D03*
X0140500Y0158333D03*
X0118500Y0158333D03*
X0038500Y0158333D03*
D12*
X0038000Y0121083D02*
X0038000Y0119583D01*
X0039000Y0119583D01*
X0039000Y0121083D01*
X0038000Y0121083D01*
X0038000Y0120677D02*
X0039000Y0120677D01*
X0039000Y0120179D02*
X0038000Y0120179D01*
X0038000Y0119680D02*
X0039000Y0119680D01*
X0039000Y0117083D02*
X0038000Y0117083D01*
X0038000Y0115583D01*
X0039000Y0115583D01*
X0039000Y0117083D01*
X0039000Y0116689D02*
X0038000Y0116689D01*
X0038000Y0116190D02*
X0039000Y0116190D01*
X0039000Y0115692D02*
X0038000Y0115692D01*
X0140000Y0115692D02*
X0141000Y0115692D01*
X0141000Y0115583D02*
X0140000Y0115583D01*
X0140000Y0117083D01*
X0141000Y0117083D01*
X0141000Y0115583D01*
X0141000Y0116190D02*
X0140000Y0116190D01*
X0140000Y0116689D02*
X0141000Y0116689D01*
X0141000Y0119583D02*
X0140000Y0119583D01*
X0140000Y0121083D01*
X0141000Y0121083D01*
X0141000Y0119583D01*
X0141000Y0119680D02*
X0140000Y0119680D01*
X0140000Y0120179D02*
X0141000Y0120179D01*
X0141000Y0120677D02*
X0140000Y0120677D01*
X0242000Y0120677D02*
X0243000Y0120677D01*
X0243000Y0121083D02*
X0242000Y0121083D01*
X0242000Y0119583D01*
X0243000Y0119583D01*
X0243000Y0121083D01*
X0243000Y0120179D02*
X0242000Y0120179D01*
X0242000Y0119680D02*
X0243000Y0119680D01*
X0243000Y0117083D02*
X0242000Y0117083D01*
X0242000Y0115583D01*
X0243000Y0115583D01*
X0243000Y0117083D01*
X0243000Y0116689D02*
X0242000Y0116689D01*
X0242000Y0116190D02*
X0243000Y0116190D01*
X0243000Y0115692D02*
X0242000Y0115692D01*
X0344000Y0115692D02*
X0345000Y0115692D01*
X0345000Y0115583D02*
X0344000Y0115583D01*
X0344000Y0117083D01*
X0345000Y0117083D01*
X0345000Y0115583D01*
X0345000Y0116190D02*
X0344000Y0116190D01*
X0344000Y0116689D02*
X0345000Y0116689D01*
X0345000Y0119583D02*
X0344000Y0119583D01*
X0344000Y0121083D01*
X0345000Y0121083D01*
X0345000Y0119583D01*
X0345000Y0119680D02*
X0344000Y0119680D01*
X0344000Y0120179D02*
X0345000Y0120179D01*
X0345000Y0120677D02*
X0344000Y0120677D01*
X0344000Y0217583D02*
X0345000Y0217583D01*
X0345000Y0219083D01*
X0344000Y0219083D01*
X0344000Y0217583D01*
X0344000Y0217887D02*
X0345000Y0217887D01*
X0345000Y0218385D02*
X0344000Y0218385D01*
X0344000Y0218884D02*
X0345000Y0218884D01*
X0345000Y0221583D02*
X0344000Y0221583D01*
X0344000Y0223083D01*
X0345000Y0223083D01*
X0345000Y0221583D01*
X0345000Y0221875D02*
X0344000Y0221875D01*
X0344000Y0222373D02*
X0345000Y0222373D01*
X0345000Y0222872D02*
X0344000Y0222872D01*
X0243000Y0222872D02*
X0242000Y0222872D01*
X0242000Y0223083D02*
X0242000Y0221583D01*
X0243000Y0221583D01*
X0243000Y0223083D01*
X0242000Y0223083D01*
X0242000Y0222373D02*
X0243000Y0222373D01*
X0243000Y0221875D02*
X0242000Y0221875D01*
X0242000Y0219083D02*
X0242000Y0217583D01*
X0243000Y0217583D01*
X0243000Y0219083D01*
X0242000Y0219083D01*
X0242000Y0218884D02*
X0243000Y0218884D01*
X0243000Y0218385D02*
X0242000Y0218385D01*
X0242000Y0217887D02*
X0243000Y0217887D01*
X0141000Y0217887D02*
X0140000Y0217887D01*
X0140000Y0217583D02*
X0141000Y0217583D01*
X0141000Y0219083D01*
X0140000Y0219083D01*
X0140000Y0217583D01*
X0140000Y0218385D02*
X0141000Y0218385D01*
X0141000Y0218884D02*
X0140000Y0218884D01*
X0140000Y0221583D02*
X0141000Y0221583D01*
X0141000Y0223083D01*
X0140000Y0223083D01*
X0140000Y0221583D01*
X0140000Y0221875D02*
X0141000Y0221875D01*
X0141000Y0222373D02*
X0140000Y0222373D01*
X0140000Y0222872D02*
X0141000Y0222872D01*
X0039000Y0222872D02*
X0038000Y0222872D01*
X0038000Y0223083D02*
X0038000Y0221583D01*
X0039000Y0221583D01*
X0039000Y0223083D01*
X0038000Y0223083D01*
X0038000Y0222373D02*
X0039000Y0222373D01*
X0039000Y0221875D02*
X0038000Y0221875D01*
X0038000Y0219083D02*
X0038000Y0217583D01*
X0039000Y0217583D01*
X0039000Y0219083D01*
X0038000Y0219083D01*
X0038000Y0218884D02*
X0039000Y0218884D01*
X0039000Y0218385D02*
X0038000Y0218385D01*
X0038000Y0217887D02*
X0039000Y0217887D01*
X0039000Y0319583D02*
X0038000Y0319583D01*
X0038000Y0321083D01*
X0039000Y0321083D01*
X0039000Y0319583D01*
X0039000Y0320082D02*
X0038000Y0320082D01*
X0038000Y0320580D02*
X0039000Y0320580D01*
X0039000Y0321079D02*
X0038000Y0321079D01*
X0038000Y0323583D02*
X0039000Y0323583D01*
X0039000Y0325083D01*
X0038000Y0325083D01*
X0038000Y0323583D01*
X0038000Y0324070D02*
X0039000Y0324070D01*
X0039000Y0324568D02*
X0038000Y0324568D01*
X0038000Y0325067D02*
X0039000Y0325067D01*
X0140000Y0325067D02*
X0141000Y0325067D01*
X0141000Y0325083D02*
X0140000Y0325083D01*
X0140000Y0323583D01*
X0141000Y0323583D01*
X0141000Y0325083D01*
X0141000Y0324568D02*
X0140000Y0324568D01*
X0140000Y0324070D02*
X0141000Y0324070D01*
X0141000Y0321083D02*
X0140000Y0321083D01*
X0140000Y0319583D01*
X0141000Y0319583D01*
X0141000Y0321083D01*
X0141000Y0321079D02*
X0140000Y0321079D01*
X0140000Y0320580D02*
X0141000Y0320580D01*
X0141000Y0320082D02*
X0140000Y0320082D01*
X0242000Y0320082D02*
X0243000Y0320082D01*
X0243000Y0320580D02*
X0242000Y0320580D01*
X0242000Y0321079D02*
X0243000Y0321079D01*
X0243000Y0321083D02*
X0242000Y0321083D01*
X0242000Y0319583D01*
X0243000Y0319583D01*
X0243000Y0321083D01*
X0243000Y0323583D02*
X0242000Y0323583D01*
X0242000Y0325083D01*
X0243000Y0325083D01*
X0243000Y0323583D01*
X0243000Y0324070D02*
X0242000Y0324070D01*
X0242000Y0324568D02*
X0243000Y0324568D01*
X0243000Y0325067D02*
X0242000Y0325067D01*
X0344000Y0325067D02*
X0345000Y0325067D01*
X0345000Y0325083D02*
X0344000Y0325083D01*
X0344000Y0323583D01*
X0345000Y0323583D01*
X0345000Y0325083D01*
X0345000Y0324568D02*
X0344000Y0324568D01*
X0344000Y0324070D02*
X0345000Y0324070D01*
X0345000Y0321083D02*
X0344000Y0321083D01*
X0344000Y0319583D01*
X0345000Y0319583D01*
X0345000Y0321083D01*
X0345000Y0321079D02*
X0344000Y0321079D01*
X0344000Y0320580D02*
X0345000Y0320580D01*
X0345000Y0320082D02*
X0344000Y0320082D01*
D13*
X0048500Y0073333D03*
X0058500Y0073333D03*
X0068500Y0073333D03*
X0078500Y0073333D03*
X0088500Y0073333D03*
X0098500Y0073333D03*
X0108500Y0073333D03*
X0150500Y0073333D03*
X0160500Y0073333D03*
X0170500Y0073333D03*
X0180500Y0073333D03*
X0190500Y0073333D03*
X0200500Y0073333D03*
X0210500Y0073333D03*
X0252500Y0073333D03*
X0262500Y0073333D03*
X0272500Y0073333D03*
X0282500Y0073333D03*
X0292500Y0073333D03*
X0302500Y0073333D03*
X0312500Y0073333D03*
X0354500Y0073333D03*
X0364500Y0073333D03*
X0374500Y0073333D03*
X0384500Y0073333D03*
X0394500Y0073333D03*
X0404500Y0073333D03*
X0414500Y0073333D03*
X0414500Y0175333D03*
X0404500Y0175333D03*
X0394500Y0175333D03*
X0384500Y0175333D03*
X0374500Y0175333D03*
X0364500Y0175333D03*
X0354500Y0175333D03*
X0312500Y0175333D03*
X0302500Y0175333D03*
X0292500Y0175333D03*
X0282500Y0175333D03*
X0272500Y0175333D03*
X0262500Y0175333D03*
X0252500Y0175333D03*
X0210500Y0175333D03*
X0200500Y0175333D03*
X0190500Y0175333D03*
X0180500Y0175333D03*
X0170500Y0175333D03*
X0160500Y0175333D03*
X0150500Y0175333D03*
X0108500Y0175333D03*
X0098500Y0175333D03*
X0088500Y0175333D03*
X0078500Y0175333D03*
X0068500Y0175333D03*
X0058500Y0175333D03*
X0048500Y0175333D03*
X0048500Y0277333D03*
X0058500Y0277333D03*
X0068500Y0277333D03*
X0078500Y0277333D03*
X0088500Y0277333D03*
X0098500Y0277333D03*
X0108500Y0277333D03*
X0150500Y0277333D03*
X0160500Y0277333D03*
X0170500Y0277333D03*
X0180500Y0277333D03*
X0190500Y0277333D03*
X0200500Y0277333D03*
X0210500Y0277333D03*
X0252500Y0277333D03*
X0262500Y0277333D03*
X0272500Y0277333D03*
X0282500Y0277333D03*
X0292500Y0277333D03*
X0302500Y0277333D03*
X0312500Y0277333D03*
X0354500Y0277333D03*
X0364500Y0277333D03*
X0374500Y0277333D03*
X0384500Y0277333D03*
X0394500Y0277333D03*
X0404500Y0277333D03*
X0414500Y0277333D03*
M02*
