G75*
%MOIN*%
%OFA0B0*%
%FSLAX25Y25*%
%IPPOS*%
%LPD*%
%AMOC8*
5,1,8,0,0,1.08239X$1,22.5*
%
%ADD10C,0.00800*%
%ADD11C,0.00000*%
D10*
X0028500Y0068333D02*
X0128500Y0068333D01*
X0128500Y0168333D01*
X0028500Y0168333D01*
X0028500Y0068333D01*
X0028500Y0170333D02*
X0128500Y0170333D01*
X0128500Y0270333D01*
X0028500Y0270333D01*
X0028500Y0170333D01*
X0028500Y0272333D02*
X0128500Y0272333D01*
X0128500Y0372333D01*
X0028500Y0372333D01*
X0028500Y0272333D01*
X0130500Y0272333D02*
X0230500Y0272333D01*
X0230500Y0372333D01*
X0130500Y0372333D01*
X0130500Y0272333D01*
X0130500Y0270333D02*
X0230500Y0270333D01*
X0230500Y0170333D01*
X0130500Y0170333D01*
X0130500Y0270333D01*
X0130500Y0168333D02*
X0230500Y0168333D01*
X0230500Y0068333D01*
X0130500Y0068333D01*
X0130500Y0168333D01*
X0232500Y0168333D02*
X0232500Y0068333D01*
X0332500Y0068333D01*
X0332500Y0168333D01*
X0232500Y0168333D01*
X0232500Y0170333D02*
X0332500Y0170333D01*
X0332500Y0270333D01*
X0232500Y0270333D01*
X0232500Y0170333D01*
X0232500Y0272333D02*
X0332500Y0272333D01*
X0332500Y0372333D01*
X0232500Y0372333D01*
X0232500Y0272333D01*
D11*
X0236000Y0260333D02*
X0236002Y0260494D01*
X0236008Y0260654D01*
X0236018Y0260815D01*
X0236032Y0260975D01*
X0236050Y0261135D01*
X0236071Y0261294D01*
X0236097Y0261453D01*
X0236127Y0261611D01*
X0236160Y0261768D01*
X0236198Y0261925D01*
X0236239Y0262080D01*
X0236284Y0262234D01*
X0236333Y0262387D01*
X0236386Y0262539D01*
X0236442Y0262690D01*
X0236503Y0262839D01*
X0236566Y0262987D01*
X0236634Y0263133D01*
X0236705Y0263277D01*
X0236779Y0263419D01*
X0236857Y0263560D01*
X0236939Y0263698D01*
X0237024Y0263835D01*
X0237112Y0263969D01*
X0237204Y0264101D01*
X0237299Y0264231D01*
X0237397Y0264359D01*
X0237498Y0264484D01*
X0237602Y0264606D01*
X0237709Y0264726D01*
X0237819Y0264843D01*
X0237932Y0264958D01*
X0238048Y0265069D01*
X0238167Y0265178D01*
X0238288Y0265283D01*
X0238412Y0265386D01*
X0238538Y0265486D01*
X0238666Y0265582D01*
X0238797Y0265675D01*
X0238931Y0265765D01*
X0239066Y0265852D01*
X0239204Y0265935D01*
X0239343Y0266015D01*
X0239485Y0266091D01*
X0239628Y0266164D01*
X0239773Y0266233D01*
X0239920Y0266299D01*
X0240068Y0266361D01*
X0240218Y0266419D01*
X0240369Y0266474D01*
X0240522Y0266525D01*
X0240676Y0266572D01*
X0240831Y0266615D01*
X0240987Y0266654D01*
X0241143Y0266690D01*
X0241301Y0266721D01*
X0241459Y0266749D01*
X0241618Y0266773D01*
X0241778Y0266793D01*
X0241938Y0266809D01*
X0242098Y0266821D01*
X0242259Y0266829D01*
X0242420Y0266833D01*
X0242580Y0266833D01*
X0242741Y0266829D01*
X0242902Y0266821D01*
X0243062Y0266809D01*
X0243222Y0266793D01*
X0243382Y0266773D01*
X0243541Y0266749D01*
X0243699Y0266721D01*
X0243857Y0266690D01*
X0244013Y0266654D01*
X0244169Y0266615D01*
X0244324Y0266572D01*
X0244478Y0266525D01*
X0244631Y0266474D01*
X0244782Y0266419D01*
X0244932Y0266361D01*
X0245080Y0266299D01*
X0245227Y0266233D01*
X0245372Y0266164D01*
X0245515Y0266091D01*
X0245657Y0266015D01*
X0245796Y0265935D01*
X0245934Y0265852D01*
X0246069Y0265765D01*
X0246203Y0265675D01*
X0246334Y0265582D01*
X0246462Y0265486D01*
X0246588Y0265386D01*
X0246712Y0265283D01*
X0246833Y0265178D01*
X0246952Y0265069D01*
X0247068Y0264958D01*
X0247181Y0264843D01*
X0247291Y0264726D01*
X0247398Y0264606D01*
X0247502Y0264484D01*
X0247603Y0264359D01*
X0247701Y0264231D01*
X0247796Y0264101D01*
X0247888Y0263969D01*
X0247976Y0263835D01*
X0248061Y0263698D01*
X0248143Y0263560D01*
X0248221Y0263419D01*
X0248295Y0263277D01*
X0248366Y0263133D01*
X0248434Y0262987D01*
X0248497Y0262839D01*
X0248558Y0262690D01*
X0248614Y0262539D01*
X0248667Y0262387D01*
X0248716Y0262234D01*
X0248761Y0262080D01*
X0248802Y0261925D01*
X0248840Y0261768D01*
X0248873Y0261611D01*
X0248903Y0261453D01*
X0248929Y0261294D01*
X0248950Y0261135D01*
X0248968Y0260975D01*
X0248982Y0260815D01*
X0248992Y0260654D01*
X0248998Y0260494D01*
X0249000Y0260333D01*
X0248998Y0260172D01*
X0248992Y0260012D01*
X0248982Y0259851D01*
X0248968Y0259691D01*
X0248950Y0259531D01*
X0248929Y0259372D01*
X0248903Y0259213D01*
X0248873Y0259055D01*
X0248840Y0258898D01*
X0248802Y0258741D01*
X0248761Y0258586D01*
X0248716Y0258432D01*
X0248667Y0258279D01*
X0248614Y0258127D01*
X0248558Y0257976D01*
X0248497Y0257827D01*
X0248434Y0257679D01*
X0248366Y0257533D01*
X0248295Y0257389D01*
X0248221Y0257247D01*
X0248143Y0257106D01*
X0248061Y0256968D01*
X0247976Y0256831D01*
X0247888Y0256697D01*
X0247796Y0256565D01*
X0247701Y0256435D01*
X0247603Y0256307D01*
X0247502Y0256182D01*
X0247398Y0256060D01*
X0247291Y0255940D01*
X0247181Y0255823D01*
X0247068Y0255708D01*
X0246952Y0255597D01*
X0246833Y0255488D01*
X0246712Y0255383D01*
X0246588Y0255280D01*
X0246462Y0255180D01*
X0246334Y0255084D01*
X0246203Y0254991D01*
X0246069Y0254901D01*
X0245934Y0254814D01*
X0245796Y0254731D01*
X0245657Y0254651D01*
X0245515Y0254575D01*
X0245372Y0254502D01*
X0245227Y0254433D01*
X0245080Y0254367D01*
X0244932Y0254305D01*
X0244782Y0254247D01*
X0244631Y0254192D01*
X0244478Y0254141D01*
X0244324Y0254094D01*
X0244169Y0254051D01*
X0244013Y0254012D01*
X0243857Y0253976D01*
X0243699Y0253945D01*
X0243541Y0253917D01*
X0243382Y0253893D01*
X0243222Y0253873D01*
X0243062Y0253857D01*
X0242902Y0253845D01*
X0242741Y0253837D01*
X0242580Y0253833D01*
X0242420Y0253833D01*
X0242259Y0253837D01*
X0242098Y0253845D01*
X0241938Y0253857D01*
X0241778Y0253873D01*
X0241618Y0253893D01*
X0241459Y0253917D01*
X0241301Y0253945D01*
X0241143Y0253976D01*
X0240987Y0254012D01*
X0240831Y0254051D01*
X0240676Y0254094D01*
X0240522Y0254141D01*
X0240369Y0254192D01*
X0240218Y0254247D01*
X0240068Y0254305D01*
X0239920Y0254367D01*
X0239773Y0254433D01*
X0239628Y0254502D01*
X0239485Y0254575D01*
X0239343Y0254651D01*
X0239204Y0254731D01*
X0239066Y0254814D01*
X0238931Y0254901D01*
X0238797Y0254991D01*
X0238666Y0255084D01*
X0238538Y0255180D01*
X0238412Y0255280D01*
X0238288Y0255383D01*
X0238167Y0255488D01*
X0238048Y0255597D01*
X0237932Y0255708D01*
X0237819Y0255823D01*
X0237709Y0255940D01*
X0237602Y0256060D01*
X0237498Y0256182D01*
X0237397Y0256307D01*
X0237299Y0256435D01*
X0237204Y0256565D01*
X0237112Y0256697D01*
X0237024Y0256831D01*
X0236939Y0256968D01*
X0236857Y0257106D01*
X0236779Y0257247D01*
X0236705Y0257389D01*
X0236634Y0257533D01*
X0236566Y0257679D01*
X0236503Y0257827D01*
X0236442Y0257976D01*
X0236386Y0258127D01*
X0236333Y0258279D01*
X0236284Y0258432D01*
X0236239Y0258586D01*
X0236198Y0258741D01*
X0236160Y0258898D01*
X0236127Y0259055D01*
X0236097Y0259213D01*
X0236071Y0259372D01*
X0236050Y0259531D01*
X0236032Y0259691D01*
X0236018Y0259851D01*
X0236008Y0260012D01*
X0236002Y0260172D01*
X0236000Y0260333D01*
X0214000Y0260333D02*
X0214002Y0260494D01*
X0214008Y0260654D01*
X0214018Y0260815D01*
X0214032Y0260975D01*
X0214050Y0261135D01*
X0214071Y0261294D01*
X0214097Y0261453D01*
X0214127Y0261611D01*
X0214160Y0261768D01*
X0214198Y0261925D01*
X0214239Y0262080D01*
X0214284Y0262234D01*
X0214333Y0262387D01*
X0214386Y0262539D01*
X0214442Y0262690D01*
X0214503Y0262839D01*
X0214566Y0262987D01*
X0214634Y0263133D01*
X0214705Y0263277D01*
X0214779Y0263419D01*
X0214857Y0263560D01*
X0214939Y0263698D01*
X0215024Y0263835D01*
X0215112Y0263969D01*
X0215204Y0264101D01*
X0215299Y0264231D01*
X0215397Y0264359D01*
X0215498Y0264484D01*
X0215602Y0264606D01*
X0215709Y0264726D01*
X0215819Y0264843D01*
X0215932Y0264958D01*
X0216048Y0265069D01*
X0216167Y0265178D01*
X0216288Y0265283D01*
X0216412Y0265386D01*
X0216538Y0265486D01*
X0216666Y0265582D01*
X0216797Y0265675D01*
X0216931Y0265765D01*
X0217066Y0265852D01*
X0217204Y0265935D01*
X0217343Y0266015D01*
X0217485Y0266091D01*
X0217628Y0266164D01*
X0217773Y0266233D01*
X0217920Y0266299D01*
X0218068Y0266361D01*
X0218218Y0266419D01*
X0218369Y0266474D01*
X0218522Y0266525D01*
X0218676Y0266572D01*
X0218831Y0266615D01*
X0218987Y0266654D01*
X0219143Y0266690D01*
X0219301Y0266721D01*
X0219459Y0266749D01*
X0219618Y0266773D01*
X0219778Y0266793D01*
X0219938Y0266809D01*
X0220098Y0266821D01*
X0220259Y0266829D01*
X0220420Y0266833D01*
X0220580Y0266833D01*
X0220741Y0266829D01*
X0220902Y0266821D01*
X0221062Y0266809D01*
X0221222Y0266793D01*
X0221382Y0266773D01*
X0221541Y0266749D01*
X0221699Y0266721D01*
X0221857Y0266690D01*
X0222013Y0266654D01*
X0222169Y0266615D01*
X0222324Y0266572D01*
X0222478Y0266525D01*
X0222631Y0266474D01*
X0222782Y0266419D01*
X0222932Y0266361D01*
X0223080Y0266299D01*
X0223227Y0266233D01*
X0223372Y0266164D01*
X0223515Y0266091D01*
X0223657Y0266015D01*
X0223796Y0265935D01*
X0223934Y0265852D01*
X0224069Y0265765D01*
X0224203Y0265675D01*
X0224334Y0265582D01*
X0224462Y0265486D01*
X0224588Y0265386D01*
X0224712Y0265283D01*
X0224833Y0265178D01*
X0224952Y0265069D01*
X0225068Y0264958D01*
X0225181Y0264843D01*
X0225291Y0264726D01*
X0225398Y0264606D01*
X0225502Y0264484D01*
X0225603Y0264359D01*
X0225701Y0264231D01*
X0225796Y0264101D01*
X0225888Y0263969D01*
X0225976Y0263835D01*
X0226061Y0263698D01*
X0226143Y0263560D01*
X0226221Y0263419D01*
X0226295Y0263277D01*
X0226366Y0263133D01*
X0226434Y0262987D01*
X0226497Y0262839D01*
X0226558Y0262690D01*
X0226614Y0262539D01*
X0226667Y0262387D01*
X0226716Y0262234D01*
X0226761Y0262080D01*
X0226802Y0261925D01*
X0226840Y0261768D01*
X0226873Y0261611D01*
X0226903Y0261453D01*
X0226929Y0261294D01*
X0226950Y0261135D01*
X0226968Y0260975D01*
X0226982Y0260815D01*
X0226992Y0260654D01*
X0226998Y0260494D01*
X0227000Y0260333D01*
X0226998Y0260172D01*
X0226992Y0260012D01*
X0226982Y0259851D01*
X0226968Y0259691D01*
X0226950Y0259531D01*
X0226929Y0259372D01*
X0226903Y0259213D01*
X0226873Y0259055D01*
X0226840Y0258898D01*
X0226802Y0258741D01*
X0226761Y0258586D01*
X0226716Y0258432D01*
X0226667Y0258279D01*
X0226614Y0258127D01*
X0226558Y0257976D01*
X0226497Y0257827D01*
X0226434Y0257679D01*
X0226366Y0257533D01*
X0226295Y0257389D01*
X0226221Y0257247D01*
X0226143Y0257106D01*
X0226061Y0256968D01*
X0225976Y0256831D01*
X0225888Y0256697D01*
X0225796Y0256565D01*
X0225701Y0256435D01*
X0225603Y0256307D01*
X0225502Y0256182D01*
X0225398Y0256060D01*
X0225291Y0255940D01*
X0225181Y0255823D01*
X0225068Y0255708D01*
X0224952Y0255597D01*
X0224833Y0255488D01*
X0224712Y0255383D01*
X0224588Y0255280D01*
X0224462Y0255180D01*
X0224334Y0255084D01*
X0224203Y0254991D01*
X0224069Y0254901D01*
X0223934Y0254814D01*
X0223796Y0254731D01*
X0223657Y0254651D01*
X0223515Y0254575D01*
X0223372Y0254502D01*
X0223227Y0254433D01*
X0223080Y0254367D01*
X0222932Y0254305D01*
X0222782Y0254247D01*
X0222631Y0254192D01*
X0222478Y0254141D01*
X0222324Y0254094D01*
X0222169Y0254051D01*
X0222013Y0254012D01*
X0221857Y0253976D01*
X0221699Y0253945D01*
X0221541Y0253917D01*
X0221382Y0253893D01*
X0221222Y0253873D01*
X0221062Y0253857D01*
X0220902Y0253845D01*
X0220741Y0253837D01*
X0220580Y0253833D01*
X0220420Y0253833D01*
X0220259Y0253837D01*
X0220098Y0253845D01*
X0219938Y0253857D01*
X0219778Y0253873D01*
X0219618Y0253893D01*
X0219459Y0253917D01*
X0219301Y0253945D01*
X0219143Y0253976D01*
X0218987Y0254012D01*
X0218831Y0254051D01*
X0218676Y0254094D01*
X0218522Y0254141D01*
X0218369Y0254192D01*
X0218218Y0254247D01*
X0218068Y0254305D01*
X0217920Y0254367D01*
X0217773Y0254433D01*
X0217628Y0254502D01*
X0217485Y0254575D01*
X0217343Y0254651D01*
X0217204Y0254731D01*
X0217066Y0254814D01*
X0216931Y0254901D01*
X0216797Y0254991D01*
X0216666Y0255084D01*
X0216538Y0255180D01*
X0216412Y0255280D01*
X0216288Y0255383D01*
X0216167Y0255488D01*
X0216048Y0255597D01*
X0215932Y0255708D01*
X0215819Y0255823D01*
X0215709Y0255940D01*
X0215602Y0256060D01*
X0215498Y0256182D01*
X0215397Y0256307D01*
X0215299Y0256435D01*
X0215204Y0256565D01*
X0215112Y0256697D01*
X0215024Y0256831D01*
X0214939Y0256968D01*
X0214857Y0257106D01*
X0214779Y0257247D01*
X0214705Y0257389D01*
X0214634Y0257533D01*
X0214566Y0257679D01*
X0214503Y0257827D01*
X0214442Y0257976D01*
X0214386Y0258127D01*
X0214333Y0258279D01*
X0214284Y0258432D01*
X0214239Y0258586D01*
X0214198Y0258741D01*
X0214160Y0258898D01*
X0214127Y0259055D01*
X0214097Y0259213D01*
X0214071Y0259372D01*
X0214050Y0259531D01*
X0214032Y0259691D01*
X0214018Y0259851D01*
X0214008Y0260012D01*
X0214002Y0260172D01*
X0214000Y0260333D01*
X0134000Y0260333D02*
X0134002Y0260494D01*
X0134008Y0260654D01*
X0134018Y0260815D01*
X0134032Y0260975D01*
X0134050Y0261135D01*
X0134071Y0261294D01*
X0134097Y0261453D01*
X0134127Y0261611D01*
X0134160Y0261768D01*
X0134198Y0261925D01*
X0134239Y0262080D01*
X0134284Y0262234D01*
X0134333Y0262387D01*
X0134386Y0262539D01*
X0134442Y0262690D01*
X0134503Y0262839D01*
X0134566Y0262987D01*
X0134634Y0263133D01*
X0134705Y0263277D01*
X0134779Y0263419D01*
X0134857Y0263560D01*
X0134939Y0263698D01*
X0135024Y0263835D01*
X0135112Y0263969D01*
X0135204Y0264101D01*
X0135299Y0264231D01*
X0135397Y0264359D01*
X0135498Y0264484D01*
X0135602Y0264606D01*
X0135709Y0264726D01*
X0135819Y0264843D01*
X0135932Y0264958D01*
X0136048Y0265069D01*
X0136167Y0265178D01*
X0136288Y0265283D01*
X0136412Y0265386D01*
X0136538Y0265486D01*
X0136666Y0265582D01*
X0136797Y0265675D01*
X0136931Y0265765D01*
X0137066Y0265852D01*
X0137204Y0265935D01*
X0137343Y0266015D01*
X0137485Y0266091D01*
X0137628Y0266164D01*
X0137773Y0266233D01*
X0137920Y0266299D01*
X0138068Y0266361D01*
X0138218Y0266419D01*
X0138369Y0266474D01*
X0138522Y0266525D01*
X0138676Y0266572D01*
X0138831Y0266615D01*
X0138987Y0266654D01*
X0139143Y0266690D01*
X0139301Y0266721D01*
X0139459Y0266749D01*
X0139618Y0266773D01*
X0139778Y0266793D01*
X0139938Y0266809D01*
X0140098Y0266821D01*
X0140259Y0266829D01*
X0140420Y0266833D01*
X0140580Y0266833D01*
X0140741Y0266829D01*
X0140902Y0266821D01*
X0141062Y0266809D01*
X0141222Y0266793D01*
X0141382Y0266773D01*
X0141541Y0266749D01*
X0141699Y0266721D01*
X0141857Y0266690D01*
X0142013Y0266654D01*
X0142169Y0266615D01*
X0142324Y0266572D01*
X0142478Y0266525D01*
X0142631Y0266474D01*
X0142782Y0266419D01*
X0142932Y0266361D01*
X0143080Y0266299D01*
X0143227Y0266233D01*
X0143372Y0266164D01*
X0143515Y0266091D01*
X0143657Y0266015D01*
X0143796Y0265935D01*
X0143934Y0265852D01*
X0144069Y0265765D01*
X0144203Y0265675D01*
X0144334Y0265582D01*
X0144462Y0265486D01*
X0144588Y0265386D01*
X0144712Y0265283D01*
X0144833Y0265178D01*
X0144952Y0265069D01*
X0145068Y0264958D01*
X0145181Y0264843D01*
X0145291Y0264726D01*
X0145398Y0264606D01*
X0145502Y0264484D01*
X0145603Y0264359D01*
X0145701Y0264231D01*
X0145796Y0264101D01*
X0145888Y0263969D01*
X0145976Y0263835D01*
X0146061Y0263698D01*
X0146143Y0263560D01*
X0146221Y0263419D01*
X0146295Y0263277D01*
X0146366Y0263133D01*
X0146434Y0262987D01*
X0146497Y0262839D01*
X0146558Y0262690D01*
X0146614Y0262539D01*
X0146667Y0262387D01*
X0146716Y0262234D01*
X0146761Y0262080D01*
X0146802Y0261925D01*
X0146840Y0261768D01*
X0146873Y0261611D01*
X0146903Y0261453D01*
X0146929Y0261294D01*
X0146950Y0261135D01*
X0146968Y0260975D01*
X0146982Y0260815D01*
X0146992Y0260654D01*
X0146998Y0260494D01*
X0147000Y0260333D01*
X0146998Y0260172D01*
X0146992Y0260012D01*
X0146982Y0259851D01*
X0146968Y0259691D01*
X0146950Y0259531D01*
X0146929Y0259372D01*
X0146903Y0259213D01*
X0146873Y0259055D01*
X0146840Y0258898D01*
X0146802Y0258741D01*
X0146761Y0258586D01*
X0146716Y0258432D01*
X0146667Y0258279D01*
X0146614Y0258127D01*
X0146558Y0257976D01*
X0146497Y0257827D01*
X0146434Y0257679D01*
X0146366Y0257533D01*
X0146295Y0257389D01*
X0146221Y0257247D01*
X0146143Y0257106D01*
X0146061Y0256968D01*
X0145976Y0256831D01*
X0145888Y0256697D01*
X0145796Y0256565D01*
X0145701Y0256435D01*
X0145603Y0256307D01*
X0145502Y0256182D01*
X0145398Y0256060D01*
X0145291Y0255940D01*
X0145181Y0255823D01*
X0145068Y0255708D01*
X0144952Y0255597D01*
X0144833Y0255488D01*
X0144712Y0255383D01*
X0144588Y0255280D01*
X0144462Y0255180D01*
X0144334Y0255084D01*
X0144203Y0254991D01*
X0144069Y0254901D01*
X0143934Y0254814D01*
X0143796Y0254731D01*
X0143657Y0254651D01*
X0143515Y0254575D01*
X0143372Y0254502D01*
X0143227Y0254433D01*
X0143080Y0254367D01*
X0142932Y0254305D01*
X0142782Y0254247D01*
X0142631Y0254192D01*
X0142478Y0254141D01*
X0142324Y0254094D01*
X0142169Y0254051D01*
X0142013Y0254012D01*
X0141857Y0253976D01*
X0141699Y0253945D01*
X0141541Y0253917D01*
X0141382Y0253893D01*
X0141222Y0253873D01*
X0141062Y0253857D01*
X0140902Y0253845D01*
X0140741Y0253837D01*
X0140580Y0253833D01*
X0140420Y0253833D01*
X0140259Y0253837D01*
X0140098Y0253845D01*
X0139938Y0253857D01*
X0139778Y0253873D01*
X0139618Y0253893D01*
X0139459Y0253917D01*
X0139301Y0253945D01*
X0139143Y0253976D01*
X0138987Y0254012D01*
X0138831Y0254051D01*
X0138676Y0254094D01*
X0138522Y0254141D01*
X0138369Y0254192D01*
X0138218Y0254247D01*
X0138068Y0254305D01*
X0137920Y0254367D01*
X0137773Y0254433D01*
X0137628Y0254502D01*
X0137485Y0254575D01*
X0137343Y0254651D01*
X0137204Y0254731D01*
X0137066Y0254814D01*
X0136931Y0254901D01*
X0136797Y0254991D01*
X0136666Y0255084D01*
X0136538Y0255180D01*
X0136412Y0255280D01*
X0136288Y0255383D01*
X0136167Y0255488D01*
X0136048Y0255597D01*
X0135932Y0255708D01*
X0135819Y0255823D01*
X0135709Y0255940D01*
X0135602Y0256060D01*
X0135498Y0256182D01*
X0135397Y0256307D01*
X0135299Y0256435D01*
X0135204Y0256565D01*
X0135112Y0256697D01*
X0135024Y0256831D01*
X0134939Y0256968D01*
X0134857Y0257106D01*
X0134779Y0257247D01*
X0134705Y0257389D01*
X0134634Y0257533D01*
X0134566Y0257679D01*
X0134503Y0257827D01*
X0134442Y0257976D01*
X0134386Y0258127D01*
X0134333Y0258279D01*
X0134284Y0258432D01*
X0134239Y0258586D01*
X0134198Y0258741D01*
X0134160Y0258898D01*
X0134127Y0259055D01*
X0134097Y0259213D01*
X0134071Y0259372D01*
X0134050Y0259531D01*
X0134032Y0259691D01*
X0134018Y0259851D01*
X0134008Y0260012D01*
X0134002Y0260172D01*
X0134000Y0260333D01*
X0112000Y0260333D02*
X0112002Y0260494D01*
X0112008Y0260654D01*
X0112018Y0260815D01*
X0112032Y0260975D01*
X0112050Y0261135D01*
X0112071Y0261294D01*
X0112097Y0261453D01*
X0112127Y0261611D01*
X0112160Y0261768D01*
X0112198Y0261925D01*
X0112239Y0262080D01*
X0112284Y0262234D01*
X0112333Y0262387D01*
X0112386Y0262539D01*
X0112442Y0262690D01*
X0112503Y0262839D01*
X0112566Y0262987D01*
X0112634Y0263133D01*
X0112705Y0263277D01*
X0112779Y0263419D01*
X0112857Y0263560D01*
X0112939Y0263698D01*
X0113024Y0263835D01*
X0113112Y0263969D01*
X0113204Y0264101D01*
X0113299Y0264231D01*
X0113397Y0264359D01*
X0113498Y0264484D01*
X0113602Y0264606D01*
X0113709Y0264726D01*
X0113819Y0264843D01*
X0113932Y0264958D01*
X0114048Y0265069D01*
X0114167Y0265178D01*
X0114288Y0265283D01*
X0114412Y0265386D01*
X0114538Y0265486D01*
X0114666Y0265582D01*
X0114797Y0265675D01*
X0114931Y0265765D01*
X0115066Y0265852D01*
X0115204Y0265935D01*
X0115343Y0266015D01*
X0115485Y0266091D01*
X0115628Y0266164D01*
X0115773Y0266233D01*
X0115920Y0266299D01*
X0116068Y0266361D01*
X0116218Y0266419D01*
X0116369Y0266474D01*
X0116522Y0266525D01*
X0116676Y0266572D01*
X0116831Y0266615D01*
X0116987Y0266654D01*
X0117143Y0266690D01*
X0117301Y0266721D01*
X0117459Y0266749D01*
X0117618Y0266773D01*
X0117778Y0266793D01*
X0117938Y0266809D01*
X0118098Y0266821D01*
X0118259Y0266829D01*
X0118420Y0266833D01*
X0118580Y0266833D01*
X0118741Y0266829D01*
X0118902Y0266821D01*
X0119062Y0266809D01*
X0119222Y0266793D01*
X0119382Y0266773D01*
X0119541Y0266749D01*
X0119699Y0266721D01*
X0119857Y0266690D01*
X0120013Y0266654D01*
X0120169Y0266615D01*
X0120324Y0266572D01*
X0120478Y0266525D01*
X0120631Y0266474D01*
X0120782Y0266419D01*
X0120932Y0266361D01*
X0121080Y0266299D01*
X0121227Y0266233D01*
X0121372Y0266164D01*
X0121515Y0266091D01*
X0121657Y0266015D01*
X0121796Y0265935D01*
X0121934Y0265852D01*
X0122069Y0265765D01*
X0122203Y0265675D01*
X0122334Y0265582D01*
X0122462Y0265486D01*
X0122588Y0265386D01*
X0122712Y0265283D01*
X0122833Y0265178D01*
X0122952Y0265069D01*
X0123068Y0264958D01*
X0123181Y0264843D01*
X0123291Y0264726D01*
X0123398Y0264606D01*
X0123502Y0264484D01*
X0123603Y0264359D01*
X0123701Y0264231D01*
X0123796Y0264101D01*
X0123888Y0263969D01*
X0123976Y0263835D01*
X0124061Y0263698D01*
X0124143Y0263560D01*
X0124221Y0263419D01*
X0124295Y0263277D01*
X0124366Y0263133D01*
X0124434Y0262987D01*
X0124497Y0262839D01*
X0124558Y0262690D01*
X0124614Y0262539D01*
X0124667Y0262387D01*
X0124716Y0262234D01*
X0124761Y0262080D01*
X0124802Y0261925D01*
X0124840Y0261768D01*
X0124873Y0261611D01*
X0124903Y0261453D01*
X0124929Y0261294D01*
X0124950Y0261135D01*
X0124968Y0260975D01*
X0124982Y0260815D01*
X0124992Y0260654D01*
X0124998Y0260494D01*
X0125000Y0260333D01*
X0124998Y0260172D01*
X0124992Y0260012D01*
X0124982Y0259851D01*
X0124968Y0259691D01*
X0124950Y0259531D01*
X0124929Y0259372D01*
X0124903Y0259213D01*
X0124873Y0259055D01*
X0124840Y0258898D01*
X0124802Y0258741D01*
X0124761Y0258586D01*
X0124716Y0258432D01*
X0124667Y0258279D01*
X0124614Y0258127D01*
X0124558Y0257976D01*
X0124497Y0257827D01*
X0124434Y0257679D01*
X0124366Y0257533D01*
X0124295Y0257389D01*
X0124221Y0257247D01*
X0124143Y0257106D01*
X0124061Y0256968D01*
X0123976Y0256831D01*
X0123888Y0256697D01*
X0123796Y0256565D01*
X0123701Y0256435D01*
X0123603Y0256307D01*
X0123502Y0256182D01*
X0123398Y0256060D01*
X0123291Y0255940D01*
X0123181Y0255823D01*
X0123068Y0255708D01*
X0122952Y0255597D01*
X0122833Y0255488D01*
X0122712Y0255383D01*
X0122588Y0255280D01*
X0122462Y0255180D01*
X0122334Y0255084D01*
X0122203Y0254991D01*
X0122069Y0254901D01*
X0121934Y0254814D01*
X0121796Y0254731D01*
X0121657Y0254651D01*
X0121515Y0254575D01*
X0121372Y0254502D01*
X0121227Y0254433D01*
X0121080Y0254367D01*
X0120932Y0254305D01*
X0120782Y0254247D01*
X0120631Y0254192D01*
X0120478Y0254141D01*
X0120324Y0254094D01*
X0120169Y0254051D01*
X0120013Y0254012D01*
X0119857Y0253976D01*
X0119699Y0253945D01*
X0119541Y0253917D01*
X0119382Y0253893D01*
X0119222Y0253873D01*
X0119062Y0253857D01*
X0118902Y0253845D01*
X0118741Y0253837D01*
X0118580Y0253833D01*
X0118420Y0253833D01*
X0118259Y0253837D01*
X0118098Y0253845D01*
X0117938Y0253857D01*
X0117778Y0253873D01*
X0117618Y0253893D01*
X0117459Y0253917D01*
X0117301Y0253945D01*
X0117143Y0253976D01*
X0116987Y0254012D01*
X0116831Y0254051D01*
X0116676Y0254094D01*
X0116522Y0254141D01*
X0116369Y0254192D01*
X0116218Y0254247D01*
X0116068Y0254305D01*
X0115920Y0254367D01*
X0115773Y0254433D01*
X0115628Y0254502D01*
X0115485Y0254575D01*
X0115343Y0254651D01*
X0115204Y0254731D01*
X0115066Y0254814D01*
X0114931Y0254901D01*
X0114797Y0254991D01*
X0114666Y0255084D01*
X0114538Y0255180D01*
X0114412Y0255280D01*
X0114288Y0255383D01*
X0114167Y0255488D01*
X0114048Y0255597D01*
X0113932Y0255708D01*
X0113819Y0255823D01*
X0113709Y0255940D01*
X0113602Y0256060D01*
X0113498Y0256182D01*
X0113397Y0256307D01*
X0113299Y0256435D01*
X0113204Y0256565D01*
X0113112Y0256697D01*
X0113024Y0256831D01*
X0112939Y0256968D01*
X0112857Y0257106D01*
X0112779Y0257247D01*
X0112705Y0257389D01*
X0112634Y0257533D01*
X0112566Y0257679D01*
X0112503Y0257827D01*
X0112442Y0257976D01*
X0112386Y0258127D01*
X0112333Y0258279D01*
X0112284Y0258432D01*
X0112239Y0258586D01*
X0112198Y0258741D01*
X0112160Y0258898D01*
X0112127Y0259055D01*
X0112097Y0259213D01*
X0112071Y0259372D01*
X0112050Y0259531D01*
X0112032Y0259691D01*
X0112018Y0259851D01*
X0112008Y0260012D01*
X0112002Y0260172D01*
X0112000Y0260333D01*
X0032000Y0260333D02*
X0032002Y0260494D01*
X0032008Y0260654D01*
X0032018Y0260815D01*
X0032032Y0260975D01*
X0032050Y0261135D01*
X0032071Y0261294D01*
X0032097Y0261453D01*
X0032127Y0261611D01*
X0032160Y0261768D01*
X0032198Y0261925D01*
X0032239Y0262080D01*
X0032284Y0262234D01*
X0032333Y0262387D01*
X0032386Y0262539D01*
X0032442Y0262690D01*
X0032503Y0262839D01*
X0032566Y0262987D01*
X0032634Y0263133D01*
X0032705Y0263277D01*
X0032779Y0263419D01*
X0032857Y0263560D01*
X0032939Y0263698D01*
X0033024Y0263835D01*
X0033112Y0263969D01*
X0033204Y0264101D01*
X0033299Y0264231D01*
X0033397Y0264359D01*
X0033498Y0264484D01*
X0033602Y0264606D01*
X0033709Y0264726D01*
X0033819Y0264843D01*
X0033932Y0264958D01*
X0034048Y0265069D01*
X0034167Y0265178D01*
X0034288Y0265283D01*
X0034412Y0265386D01*
X0034538Y0265486D01*
X0034666Y0265582D01*
X0034797Y0265675D01*
X0034931Y0265765D01*
X0035066Y0265852D01*
X0035204Y0265935D01*
X0035343Y0266015D01*
X0035485Y0266091D01*
X0035628Y0266164D01*
X0035773Y0266233D01*
X0035920Y0266299D01*
X0036068Y0266361D01*
X0036218Y0266419D01*
X0036369Y0266474D01*
X0036522Y0266525D01*
X0036676Y0266572D01*
X0036831Y0266615D01*
X0036987Y0266654D01*
X0037143Y0266690D01*
X0037301Y0266721D01*
X0037459Y0266749D01*
X0037618Y0266773D01*
X0037778Y0266793D01*
X0037938Y0266809D01*
X0038098Y0266821D01*
X0038259Y0266829D01*
X0038420Y0266833D01*
X0038580Y0266833D01*
X0038741Y0266829D01*
X0038902Y0266821D01*
X0039062Y0266809D01*
X0039222Y0266793D01*
X0039382Y0266773D01*
X0039541Y0266749D01*
X0039699Y0266721D01*
X0039857Y0266690D01*
X0040013Y0266654D01*
X0040169Y0266615D01*
X0040324Y0266572D01*
X0040478Y0266525D01*
X0040631Y0266474D01*
X0040782Y0266419D01*
X0040932Y0266361D01*
X0041080Y0266299D01*
X0041227Y0266233D01*
X0041372Y0266164D01*
X0041515Y0266091D01*
X0041657Y0266015D01*
X0041796Y0265935D01*
X0041934Y0265852D01*
X0042069Y0265765D01*
X0042203Y0265675D01*
X0042334Y0265582D01*
X0042462Y0265486D01*
X0042588Y0265386D01*
X0042712Y0265283D01*
X0042833Y0265178D01*
X0042952Y0265069D01*
X0043068Y0264958D01*
X0043181Y0264843D01*
X0043291Y0264726D01*
X0043398Y0264606D01*
X0043502Y0264484D01*
X0043603Y0264359D01*
X0043701Y0264231D01*
X0043796Y0264101D01*
X0043888Y0263969D01*
X0043976Y0263835D01*
X0044061Y0263698D01*
X0044143Y0263560D01*
X0044221Y0263419D01*
X0044295Y0263277D01*
X0044366Y0263133D01*
X0044434Y0262987D01*
X0044497Y0262839D01*
X0044558Y0262690D01*
X0044614Y0262539D01*
X0044667Y0262387D01*
X0044716Y0262234D01*
X0044761Y0262080D01*
X0044802Y0261925D01*
X0044840Y0261768D01*
X0044873Y0261611D01*
X0044903Y0261453D01*
X0044929Y0261294D01*
X0044950Y0261135D01*
X0044968Y0260975D01*
X0044982Y0260815D01*
X0044992Y0260654D01*
X0044998Y0260494D01*
X0045000Y0260333D01*
X0044998Y0260172D01*
X0044992Y0260012D01*
X0044982Y0259851D01*
X0044968Y0259691D01*
X0044950Y0259531D01*
X0044929Y0259372D01*
X0044903Y0259213D01*
X0044873Y0259055D01*
X0044840Y0258898D01*
X0044802Y0258741D01*
X0044761Y0258586D01*
X0044716Y0258432D01*
X0044667Y0258279D01*
X0044614Y0258127D01*
X0044558Y0257976D01*
X0044497Y0257827D01*
X0044434Y0257679D01*
X0044366Y0257533D01*
X0044295Y0257389D01*
X0044221Y0257247D01*
X0044143Y0257106D01*
X0044061Y0256968D01*
X0043976Y0256831D01*
X0043888Y0256697D01*
X0043796Y0256565D01*
X0043701Y0256435D01*
X0043603Y0256307D01*
X0043502Y0256182D01*
X0043398Y0256060D01*
X0043291Y0255940D01*
X0043181Y0255823D01*
X0043068Y0255708D01*
X0042952Y0255597D01*
X0042833Y0255488D01*
X0042712Y0255383D01*
X0042588Y0255280D01*
X0042462Y0255180D01*
X0042334Y0255084D01*
X0042203Y0254991D01*
X0042069Y0254901D01*
X0041934Y0254814D01*
X0041796Y0254731D01*
X0041657Y0254651D01*
X0041515Y0254575D01*
X0041372Y0254502D01*
X0041227Y0254433D01*
X0041080Y0254367D01*
X0040932Y0254305D01*
X0040782Y0254247D01*
X0040631Y0254192D01*
X0040478Y0254141D01*
X0040324Y0254094D01*
X0040169Y0254051D01*
X0040013Y0254012D01*
X0039857Y0253976D01*
X0039699Y0253945D01*
X0039541Y0253917D01*
X0039382Y0253893D01*
X0039222Y0253873D01*
X0039062Y0253857D01*
X0038902Y0253845D01*
X0038741Y0253837D01*
X0038580Y0253833D01*
X0038420Y0253833D01*
X0038259Y0253837D01*
X0038098Y0253845D01*
X0037938Y0253857D01*
X0037778Y0253873D01*
X0037618Y0253893D01*
X0037459Y0253917D01*
X0037301Y0253945D01*
X0037143Y0253976D01*
X0036987Y0254012D01*
X0036831Y0254051D01*
X0036676Y0254094D01*
X0036522Y0254141D01*
X0036369Y0254192D01*
X0036218Y0254247D01*
X0036068Y0254305D01*
X0035920Y0254367D01*
X0035773Y0254433D01*
X0035628Y0254502D01*
X0035485Y0254575D01*
X0035343Y0254651D01*
X0035204Y0254731D01*
X0035066Y0254814D01*
X0034931Y0254901D01*
X0034797Y0254991D01*
X0034666Y0255084D01*
X0034538Y0255180D01*
X0034412Y0255280D01*
X0034288Y0255383D01*
X0034167Y0255488D01*
X0034048Y0255597D01*
X0033932Y0255708D01*
X0033819Y0255823D01*
X0033709Y0255940D01*
X0033602Y0256060D01*
X0033498Y0256182D01*
X0033397Y0256307D01*
X0033299Y0256435D01*
X0033204Y0256565D01*
X0033112Y0256697D01*
X0033024Y0256831D01*
X0032939Y0256968D01*
X0032857Y0257106D01*
X0032779Y0257247D01*
X0032705Y0257389D01*
X0032634Y0257533D01*
X0032566Y0257679D01*
X0032503Y0257827D01*
X0032442Y0257976D01*
X0032386Y0258127D01*
X0032333Y0258279D01*
X0032284Y0258432D01*
X0032239Y0258586D01*
X0032198Y0258741D01*
X0032160Y0258898D01*
X0032127Y0259055D01*
X0032097Y0259213D01*
X0032071Y0259372D01*
X0032050Y0259531D01*
X0032032Y0259691D01*
X0032018Y0259851D01*
X0032008Y0260012D01*
X0032002Y0260172D01*
X0032000Y0260333D01*
X0032000Y0158333D02*
X0032002Y0158494D01*
X0032008Y0158654D01*
X0032018Y0158815D01*
X0032032Y0158975D01*
X0032050Y0159135D01*
X0032071Y0159294D01*
X0032097Y0159453D01*
X0032127Y0159611D01*
X0032160Y0159768D01*
X0032198Y0159925D01*
X0032239Y0160080D01*
X0032284Y0160234D01*
X0032333Y0160387D01*
X0032386Y0160539D01*
X0032442Y0160690D01*
X0032503Y0160839D01*
X0032566Y0160987D01*
X0032634Y0161133D01*
X0032705Y0161277D01*
X0032779Y0161419D01*
X0032857Y0161560D01*
X0032939Y0161698D01*
X0033024Y0161835D01*
X0033112Y0161969D01*
X0033204Y0162101D01*
X0033299Y0162231D01*
X0033397Y0162359D01*
X0033498Y0162484D01*
X0033602Y0162606D01*
X0033709Y0162726D01*
X0033819Y0162843D01*
X0033932Y0162958D01*
X0034048Y0163069D01*
X0034167Y0163178D01*
X0034288Y0163283D01*
X0034412Y0163386D01*
X0034538Y0163486D01*
X0034666Y0163582D01*
X0034797Y0163675D01*
X0034931Y0163765D01*
X0035066Y0163852D01*
X0035204Y0163935D01*
X0035343Y0164015D01*
X0035485Y0164091D01*
X0035628Y0164164D01*
X0035773Y0164233D01*
X0035920Y0164299D01*
X0036068Y0164361D01*
X0036218Y0164419D01*
X0036369Y0164474D01*
X0036522Y0164525D01*
X0036676Y0164572D01*
X0036831Y0164615D01*
X0036987Y0164654D01*
X0037143Y0164690D01*
X0037301Y0164721D01*
X0037459Y0164749D01*
X0037618Y0164773D01*
X0037778Y0164793D01*
X0037938Y0164809D01*
X0038098Y0164821D01*
X0038259Y0164829D01*
X0038420Y0164833D01*
X0038580Y0164833D01*
X0038741Y0164829D01*
X0038902Y0164821D01*
X0039062Y0164809D01*
X0039222Y0164793D01*
X0039382Y0164773D01*
X0039541Y0164749D01*
X0039699Y0164721D01*
X0039857Y0164690D01*
X0040013Y0164654D01*
X0040169Y0164615D01*
X0040324Y0164572D01*
X0040478Y0164525D01*
X0040631Y0164474D01*
X0040782Y0164419D01*
X0040932Y0164361D01*
X0041080Y0164299D01*
X0041227Y0164233D01*
X0041372Y0164164D01*
X0041515Y0164091D01*
X0041657Y0164015D01*
X0041796Y0163935D01*
X0041934Y0163852D01*
X0042069Y0163765D01*
X0042203Y0163675D01*
X0042334Y0163582D01*
X0042462Y0163486D01*
X0042588Y0163386D01*
X0042712Y0163283D01*
X0042833Y0163178D01*
X0042952Y0163069D01*
X0043068Y0162958D01*
X0043181Y0162843D01*
X0043291Y0162726D01*
X0043398Y0162606D01*
X0043502Y0162484D01*
X0043603Y0162359D01*
X0043701Y0162231D01*
X0043796Y0162101D01*
X0043888Y0161969D01*
X0043976Y0161835D01*
X0044061Y0161698D01*
X0044143Y0161560D01*
X0044221Y0161419D01*
X0044295Y0161277D01*
X0044366Y0161133D01*
X0044434Y0160987D01*
X0044497Y0160839D01*
X0044558Y0160690D01*
X0044614Y0160539D01*
X0044667Y0160387D01*
X0044716Y0160234D01*
X0044761Y0160080D01*
X0044802Y0159925D01*
X0044840Y0159768D01*
X0044873Y0159611D01*
X0044903Y0159453D01*
X0044929Y0159294D01*
X0044950Y0159135D01*
X0044968Y0158975D01*
X0044982Y0158815D01*
X0044992Y0158654D01*
X0044998Y0158494D01*
X0045000Y0158333D01*
X0044998Y0158172D01*
X0044992Y0158012D01*
X0044982Y0157851D01*
X0044968Y0157691D01*
X0044950Y0157531D01*
X0044929Y0157372D01*
X0044903Y0157213D01*
X0044873Y0157055D01*
X0044840Y0156898D01*
X0044802Y0156741D01*
X0044761Y0156586D01*
X0044716Y0156432D01*
X0044667Y0156279D01*
X0044614Y0156127D01*
X0044558Y0155976D01*
X0044497Y0155827D01*
X0044434Y0155679D01*
X0044366Y0155533D01*
X0044295Y0155389D01*
X0044221Y0155247D01*
X0044143Y0155106D01*
X0044061Y0154968D01*
X0043976Y0154831D01*
X0043888Y0154697D01*
X0043796Y0154565D01*
X0043701Y0154435D01*
X0043603Y0154307D01*
X0043502Y0154182D01*
X0043398Y0154060D01*
X0043291Y0153940D01*
X0043181Y0153823D01*
X0043068Y0153708D01*
X0042952Y0153597D01*
X0042833Y0153488D01*
X0042712Y0153383D01*
X0042588Y0153280D01*
X0042462Y0153180D01*
X0042334Y0153084D01*
X0042203Y0152991D01*
X0042069Y0152901D01*
X0041934Y0152814D01*
X0041796Y0152731D01*
X0041657Y0152651D01*
X0041515Y0152575D01*
X0041372Y0152502D01*
X0041227Y0152433D01*
X0041080Y0152367D01*
X0040932Y0152305D01*
X0040782Y0152247D01*
X0040631Y0152192D01*
X0040478Y0152141D01*
X0040324Y0152094D01*
X0040169Y0152051D01*
X0040013Y0152012D01*
X0039857Y0151976D01*
X0039699Y0151945D01*
X0039541Y0151917D01*
X0039382Y0151893D01*
X0039222Y0151873D01*
X0039062Y0151857D01*
X0038902Y0151845D01*
X0038741Y0151837D01*
X0038580Y0151833D01*
X0038420Y0151833D01*
X0038259Y0151837D01*
X0038098Y0151845D01*
X0037938Y0151857D01*
X0037778Y0151873D01*
X0037618Y0151893D01*
X0037459Y0151917D01*
X0037301Y0151945D01*
X0037143Y0151976D01*
X0036987Y0152012D01*
X0036831Y0152051D01*
X0036676Y0152094D01*
X0036522Y0152141D01*
X0036369Y0152192D01*
X0036218Y0152247D01*
X0036068Y0152305D01*
X0035920Y0152367D01*
X0035773Y0152433D01*
X0035628Y0152502D01*
X0035485Y0152575D01*
X0035343Y0152651D01*
X0035204Y0152731D01*
X0035066Y0152814D01*
X0034931Y0152901D01*
X0034797Y0152991D01*
X0034666Y0153084D01*
X0034538Y0153180D01*
X0034412Y0153280D01*
X0034288Y0153383D01*
X0034167Y0153488D01*
X0034048Y0153597D01*
X0033932Y0153708D01*
X0033819Y0153823D01*
X0033709Y0153940D01*
X0033602Y0154060D01*
X0033498Y0154182D01*
X0033397Y0154307D01*
X0033299Y0154435D01*
X0033204Y0154565D01*
X0033112Y0154697D01*
X0033024Y0154831D01*
X0032939Y0154968D01*
X0032857Y0155106D01*
X0032779Y0155247D01*
X0032705Y0155389D01*
X0032634Y0155533D01*
X0032566Y0155679D01*
X0032503Y0155827D01*
X0032442Y0155976D01*
X0032386Y0156127D01*
X0032333Y0156279D01*
X0032284Y0156432D01*
X0032239Y0156586D01*
X0032198Y0156741D01*
X0032160Y0156898D01*
X0032127Y0157055D01*
X0032097Y0157213D01*
X0032071Y0157372D01*
X0032050Y0157531D01*
X0032032Y0157691D01*
X0032018Y0157851D01*
X0032008Y0158012D01*
X0032002Y0158172D01*
X0032000Y0158333D01*
X0112000Y0158333D02*
X0112002Y0158494D01*
X0112008Y0158654D01*
X0112018Y0158815D01*
X0112032Y0158975D01*
X0112050Y0159135D01*
X0112071Y0159294D01*
X0112097Y0159453D01*
X0112127Y0159611D01*
X0112160Y0159768D01*
X0112198Y0159925D01*
X0112239Y0160080D01*
X0112284Y0160234D01*
X0112333Y0160387D01*
X0112386Y0160539D01*
X0112442Y0160690D01*
X0112503Y0160839D01*
X0112566Y0160987D01*
X0112634Y0161133D01*
X0112705Y0161277D01*
X0112779Y0161419D01*
X0112857Y0161560D01*
X0112939Y0161698D01*
X0113024Y0161835D01*
X0113112Y0161969D01*
X0113204Y0162101D01*
X0113299Y0162231D01*
X0113397Y0162359D01*
X0113498Y0162484D01*
X0113602Y0162606D01*
X0113709Y0162726D01*
X0113819Y0162843D01*
X0113932Y0162958D01*
X0114048Y0163069D01*
X0114167Y0163178D01*
X0114288Y0163283D01*
X0114412Y0163386D01*
X0114538Y0163486D01*
X0114666Y0163582D01*
X0114797Y0163675D01*
X0114931Y0163765D01*
X0115066Y0163852D01*
X0115204Y0163935D01*
X0115343Y0164015D01*
X0115485Y0164091D01*
X0115628Y0164164D01*
X0115773Y0164233D01*
X0115920Y0164299D01*
X0116068Y0164361D01*
X0116218Y0164419D01*
X0116369Y0164474D01*
X0116522Y0164525D01*
X0116676Y0164572D01*
X0116831Y0164615D01*
X0116987Y0164654D01*
X0117143Y0164690D01*
X0117301Y0164721D01*
X0117459Y0164749D01*
X0117618Y0164773D01*
X0117778Y0164793D01*
X0117938Y0164809D01*
X0118098Y0164821D01*
X0118259Y0164829D01*
X0118420Y0164833D01*
X0118580Y0164833D01*
X0118741Y0164829D01*
X0118902Y0164821D01*
X0119062Y0164809D01*
X0119222Y0164793D01*
X0119382Y0164773D01*
X0119541Y0164749D01*
X0119699Y0164721D01*
X0119857Y0164690D01*
X0120013Y0164654D01*
X0120169Y0164615D01*
X0120324Y0164572D01*
X0120478Y0164525D01*
X0120631Y0164474D01*
X0120782Y0164419D01*
X0120932Y0164361D01*
X0121080Y0164299D01*
X0121227Y0164233D01*
X0121372Y0164164D01*
X0121515Y0164091D01*
X0121657Y0164015D01*
X0121796Y0163935D01*
X0121934Y0163852D01*
X0122069Y0163765D01*
X0122203Y0163675D01*
X0122334Y0163582D01*
X0122462Y0163486D01*
X0122588Y0163386D01*
X0122712Y0163283D01*
X0122833Y0163178D01*
X0122952Y0163069D01*
X0123068Y0162958D01*
X0123181Y0162843D01*
X0123291Y0162726D01*
X0123398Y0162606D01*
X0123502Y0162484D01*
X0123603Y0162359D01*
X0123701Y0162231D01*
X0123796Y0162101D01*
X0123888Y0161969D01*
X0123976Y0161835D01*
X0124061Y0161698D01*
X0124143Y0161560D01*
X0124221Y0161419D01*
X0124295Y0161277D01*
X0124366Y0161133D01*
X0124434Y0160987D01*
X0124497Y0160839D01*
X0124558Y0160690D01*
X0124614Y0160539D01*
X0124667Y0160387D01*
X0124716Y0160234D01*
X0124761Y0160080D01*
X0124802Y0159925D01*
X0124840Y0159768D01*
X0124873Y0159611D01*
X0124903Y0159453D01*
X0124929Y0159294D01*
X0124950Y0159135D01*
X0124968Y0158975D01*
X0124982Y0158815D01*
X0124992Y0158654D01*
X0124998Y0158494D01*
X0125000Y0158333D01*
X0124998Y0158172D01*
X0124992Y0158012D01*
X0124982Y0157851D01*
X0124968Y0157691D01*
X0124950Y0157531D01*
X0124929Y0157372D01*
X0124903Y0157213D01*
X0124873Y0157055D01*
X0124840Y0156898D01*
X0124802Y0156741D01*
X0124761Y0156586D01*
X0124716Y0156432D01*
X0124667Y0156279D01*
X0124614Y0156127D01*
X0124558Y0155976D01*
X0124497Y0155827D01*
X0124434Y0155679D01*
X0124366Y0155533D01*
X0124295Y0155389D01*
X0124221Y0155247D01*
X0124143Y0155106D01*
X0124061Y0154968D01*
X0123976Y0154831D01*
X0123888Y0154697D01*
X0123796Y0154565D01*
X0123701Y0154435D01*
X0123603Y0154307D01*
X0123502Y0154182D01*
X0123398Y0154060D01*
X0123291Y0153940D01*
X0123181Y0153823D01*
X0123068Y0153708D01*
X0122952Y0153597D01*
X0122833Y0153488D01*
X0122712Y0153383D01*
X0122588Y0153280D01*
X0122462Y0153180D01*
X0122334Y0153084D01*
X0122203Y0152991D01*
X0122069Y0152901D01*
X0121934Y0152814D01*
X0121796Y0152731D01*
X0121657Y0152651D01*
X0121515Y0152575D01*
X0121372Y0152502D01*
X0121227Y0152433D01*
X0121080Y0152367D01*
X0120932Y0152305D01*
X0120782Y0152247D01*
X0120631Y0152192D01*
X0120478Y0152141D01*
X0120324Y0152094D01*
X0120169Y0152051D01*
X0120013Y0152012D01*
X0119857Y0151976D01*
X0119699Y0151945D01*
X0119541Y0151917D01*
X0119382Y0151893D01*
X0119222Y0151873D01*
X0119062Y0151857D01*
X0118902Y0151845D01*
X0118741Y0151837D01*
X0118580Y0151833D01*
X0118420Y0151833D01*
X0118259Y0151837D01*
X0118098Y0151845D01*
X0117938Y0151857D01*
X0117778Y0151873D01*
X0117618Y0151893D01*
X0117459Y0151917D01*
X0117301Y0151945D01*
X0117143Y0151976D01*
X0116987Y0152012D01*
X0116831Y0152051D01*
X0116676Y0152094D01*
X0116522Y0152141D01*
X0116369Y0152192D01*
X0116218Y0152247D01*
X0116068Y0152305D01*
X0115920Y0152367D01*
X0115773Y0152433D01*
X0115628Y0152502D01*
X0115485Y0152575D01*
X0115343Y0152651D01*
X0115204Y0152731D01*
X0115066Y0152814D01*
X0114931Y0152901D01*
X0114797Y0152991D01*
X0114666Y0153084D01*
X0114538Y0153180D01*
X0114412Y0153280D01*
X0114288Y0153383D01*
X0114167Y0153488D01*
X0114048Y0153597D01*
X0113932Y0153708D01*
X0113819Y0153823D01*
X0113709Y0153940D01*
X0113602Y0154060D01*
X0113498Y0154182D01*
X0113397Y0154307D01*
X0113299Y0154435D01*
X0113204Y0154565D01*
X0113112Y0154697D01*
X0113024Y0154831D01*
X0112939Y0154968D01*
X0112857Y0155106D01*
X0112779Y0155247D01*
X0112705Y0155389D01*
X0112634Y0155533D01*
X0112566Y0155679D01*
X0112503Y0155827D01*
X0112442Y0155976D01*
X0112386Y0156127D01*
X0112333Y0156279D01*
X0112284Y0156432D01*
X0112239Y0156586D01*
X0112198Y0156741D01*
X0112160Y0156898D01*
X0112127Y0157055D01*
X0112097Y0157213D01*
X0112071Y0157372D01*
X0112050Y0157531D01*
X0112032Y0157691D01*
X0112018Y0157851D01*
X0112008Y0158012D01*
X0112002Y0158172D01*
X0112000Y0158333D01*
X0134000Y0158333D02*
X0134002Y0158494D01*
X0134008Y0158654D01*
X0134018Y0158815D01*
X0134032Y0158975D01*
X0134050Y0159135D01*
X0134071Y0159294D01*
X0134097Y0159453D01*
X0134127Y0159611D01*
X0134160Y0159768D01*
X0134198Y0159925D01*
X0134239Y0160080D01*
X0134284Y0160234D01*
X0134333Y0160387D01*
X0134386Y0160539D01*
X0134442Y0160690D01*
X0134503Y0160839D01*
X0134566Y0160987D01*
X0134634Y0161133D01*
X0134705Y0161277D01*
X0134779Y0161419D01*
X0134857Y0161560D01*
X0134939Y0161698D01*
X0135024Y0161835D01*
X0135112Y0161969D01*
X0135204Y0162101D01*
X0135299Y0162231D01*
X0135397Y0162359D01*
X0135498Y0162484D01*
X0135602Y0162606D01*
X0135709Y0162726D01*
X0135819Y0162843D01*
X0135932Y0162958D01*
X0136048Y0163069D01*
X0136167Y0163178D01*
X0136288Y0163283D01*
X0136412Y0163386D01*
X0136538Y0163486D01*
X0136666Y0163582D01*
X0136797Y0163675D01*
X0136931Y0163765D01*
X0137066Y0163852D01*
X0137204Y0163935D01*
X0137343Y0164015D01*
X0137485Y0164091D01*
X0137628Y0164164D01*
X0137773Y0164233D01*
X0137920Y0164299D01*
X0138068Y0164361D01*
X0138218Y0164419D01*
X0138369Y0164474D01*
X0138522Y0164525D01*
X0138676Y0164572D01*
X0138831Y0164615D01*
X0138987Y0164654D01*
X0139143Y0164690D01*
X0139301Y0164721D01*
X0139459Y0164749D01*
X0139618Y0164773D01*
X0139778Y0164793D01*
X0139938Y0164809D01*
X0140098Y0164821D01*
X0140259Y0164829D01*
X0140420Y0164833D01*
X0140580Y0164833D01*
X0140741Y0164829D01*
X0140902Y0164821D01*
X0141062Y0164809D01*
X0141222Y0164793D01*
X0141382Y0164773D01*
X0141541Y0164749D01*
X0141699Y0164721D01*
X0141857Y0164690D01*
X0142013Y0164654D01*
X0142169Y0164615D01*
X0142324Y0164572D01*
X0142478Y0164525D01*
X0142631Y0164474D01*
X0142782Y0164419D01*
X0142932Y0164361D01*
X0143080Y0164299D01*
X0143227Y0164233D01*
X0143372Y0164164D01*
X0143515Y0164091D01*
X0143657Y0164015D01*
X0143796Y0163935D01*
X0143934Y0163852D01*
X0144069Y0163765D01*
X0144203Y0163675D01*
X0144334Y0163582D01*
X0144462Y0163486D01*
X0144588Y0163386D01*
X0144712Y0163283D01*
X0144833Y0163178D01*
X0144952Y0163069D01*
X0145068Y0162958D01*
X0145181Y0162843D01*
X0145291Y0162726D01*
X0145398Y0162606D01*
X0145502Y0162484D01*
X0145603Y0162359D01*
X0145701Y0162231D01*
X0145796Y0162101D01*
X0145888Y0161969D01*
X0145976Y0161835D01*
X0146061Y0161698D01*
X0146143Y0161560D01*
X0146221Y0161419D01*
X0146295Y0161277D01*
X0146366Y0161133D01*
X0146434Y0160987D01*
X0146497Y0160839D01*
X0146558Y0160690D01*
X0146614Y0160539D01*
X0146667Y0160387D01*
X0146716Y0160234D01*
X0146761Y0160080D01*
X0146802Y0159925D01*
X0146840Y0159768D01*
X0146873Y0159611D01*
X0146903Y0159453D01*
X0146929Y0159294D01*
X0146950Y0159135D01*
X0146968Y0158975D01*
X0146982Y0158815D01*
X0146992Y0158654D01*
X0146998Y0158494D01*
X0147000Y0158333D01*
X0146998Y0158172D01*
X0146992Y0158012D01*
X0146982Y0157851D01*
X0146968Y0157691D01*
X0146950Y0157531D01*
X0146929Y0157372D01*
X0146903Y0157213D01*
X0146873Y0157055D01*
X0146840Y0156898D01*
X0146802Y0156741D01*
X0146761Y0156586D01*
X0146716Y0156432D01*
X0146667Y0156279D01*
X0146614Y0156127D01*
X0146558Y0155976D01*
X0146497Y0155827D01*
X0146434Y0155679D01*
X0146366Y0155533D01*
X0146295Y0155389D01*
X0146221Y0155247D01*
X0146143Y0155106D01*
X0146061Y0154968D01*
X0145976Y0154831D01*
X0145888Y0154697D01*
X0145796Y0154565D01*
X0145701Y0154435D01*
X0145603Y0154307D01*
X0145502Y0154182D01*
X0145398Y0154060D01*
X0145291Y0153940D01*
X0145181Y0153823D01*
X0145068Y0153708D01*
X0144952Y0153597D01*
X0144833Y0153488D01*
X0144712Y0153383D01*
X0144588Y0153280D01*
X0144462Y0153180D01*
X0144334Y0153084D01*
X0144203Y0152991D01*
X0144069Y0152901D01*
X0143934Y0152814D01*
X0143796Y0152731D01*
X0143657Y0152651D01*
X0143515Y0152575D01*
X0143372Y0152502D01*
X0143227Y0152433D01*
X0143080Y0152367D01*
X0142932Y0152305D01*
X0142782Y0152247D01*
X0142631Y0152192D01*
X0142478Y0152141D01*
X0142324Y0152094D01*
X0142169Y0152051D01*
X0142013Y0152012D01*
X0141857Y0151976D01*
X0141699Y0151945D01*
X0141541Y0151917D01*
X0141382Y0151893D01*
X0141222Y0151873D01*
X0141062Y0151857D01*
X0140902Y0151845D01*
X0140741Y0151837D01*
X0140580Y0151833D01*
X0140420Y0151833D01*
X0140259Y0151837D01*
X0140098Y0151845D01*
X0139938Y0151857D01*
X0139778Y0151873D01*
X0139618Y0151893D01*
X0139459Y0151917D01*
X0139301Y0151945D01*
X0139143Y0151976D01*
X0138987Y0152012D01*
X0138831Y0152051D01*
X0138676Y0152094D01*
X0138522Y0152141D01*
X0138369Y0152192D01*
X0138218Y0152247D01*
X0138068Y0152305D01*
X0137920Y0152367D01*
X0137773Y0152433D01*
X0137628Y0152502D01*
X0137485Y0152575D01*
X0137343Y0152651D01*
X0137204Y0152731D01*
X0137066Y0152814D01*
X0136931Y0152901D01*
X0136797Y0152991D01*
X0136666Y0153084D01*
X0136538Y0153180D01*
X0136412Y0153280D01*
X0136288Y0153383D01*
X0136167Y0153488D01*
X0136048Y0153597D01*
X0135932Y0153708D01*
X0135819Y0153823D01*
X0135709Y0153940D01*
X0135602Y0154060D01*
X0135498Y0154182D01*
X0135397Y0154307D01*
X0135299Y0154435D01*
X0135204Y0154565D01*
X0135112Y0154697D01*
X0135024Y0154831D01*
X0134939Y0154968D01*
X0134857Y0155106D01*
X0134779Y0155247D01*
X0134705Y0155389D01*
X0134634Y0155533D01*
X0134566Y0155679D01*
X0134503Y0155827D01*
X0134442Y0155976D01*
X0134386Y0156127D01*
X0134333Y0156279D01*
X0134284Y0156432D01*
X0134239Y0156586D01*
X0134198Y0156741D01*
X0134160Y0156898D01*
X0134127Y0157055D01*
X0134097Y0157213D01*
X0134071Y0157372D01*
X0134050Y0157531D01*
X0134032Y0157691D01*
X0134018Y0157851D01*
X0134008Y0158012D01*
X0134002Y0158172D01*
X0134000Y0158333D01*
X0214000Y0158333D02*
X0214002Y0158494D01*
X0214008Y0158654D01*
X0214018Y0158815D01*
X0214032Y0158975D01*
X0214050Y0159135D01*
X0214071Y0159294D01*
X0214097Y0159453D01*
X0214127Y0159611D01*
X0214160Y0159768D01*
X0214198Y0159925D01*
X0214239Y0160080D01*
X0214284Y0160234D01*
X0214333Y0160387D01*
X0214386Y0160539D01*
X0214442Y0160690D01*
X0214503Y0160839D01*
X0214566Y0160987D01*
X0214634Y0161133D01*
X0214705Y0161277D01*
X0214779Y0161419D01*
X0214857Y0161560D01*
X0214939Y0161698D01*
X0215024Y0161835D01*
X0215112Y0161969D01*
X0215204Y0162101D01*
X0215299Y0162231D01*
X0215397Y0162359D01*
X0215498Y0162484D01*
X0215602Y0162606D01*
X0215709Y0162726D01*
X0215819Y0162843D01*
X0215932Y0162958D01*
X0216048Y0163069D01*
X0216167Y0163178D01*
X0216288Y0163283D01*
X0216412Y0163386D01*
X0216538Y0163486D01*
X0216666Y0163582D01*
X0216797Y0163675D01*
X0216931Y0163765D01*
X0217066Y0163852D01*
X0217204Y0163935D01*
X0217343Y0164015D01*
X0217485Y0164091D01*
X0217628Y0164164D01*
X0217773Y0164233D01*
X0217920Y0164299D01*
X0218068Y0164361D01*
X0218218Y0164419D01*
X0218369Y0164474D01*
X0218522Y0164525D01*
X0218676Y0164572D01*
X0218831Y0164615D01*
X0218987Y0164654D01*
X0219143Y0164690D01*
X0219301Y0164721D01*
X0219459Y0164749D01*
X0219618Y0164773D01*
X0219778Y0164793D01*
X0219938Y0164809D01*
X0220098Y0164821D01*
X0220259Y0164829D01*
X0220420Y0164833D01*
X0220580Y0164833D01*
X0220741Y0164829D01*
X0220902Y0164821D01*
X0221062Y0164809D01*
X0221222Y0164793D01*
X0221382Y0164773D01*
X0221541Y0164749D01*
X0221699Y0164721D01*
X0221857Y0164690D01*
X0222013Y0164654D01*
X0222169Y0164615D01*
X0222324Y0164572D01*
X0222478Y0164525D01*
X0222631Y0164474D01*
X0222782Y0164419D01*
X0222932Y0164361D01*
X0223080Y0164299D01*
X0223227Y0164233D01*
X0223372Y0164164D01*
X0223515Y0164091D01*
X0223657Y0164015D01*
X0223796Y0163935D01*
X0223934Y0163852D01*
X0224069Y0163765D01*
X0224203Y0163675D01*
X0224334Y0163582D01*
X0224462Y0163486D01*
X0224588Y0163386D01*
X0224712Y0163283D01*
X0224833Y0163178D01*
X0224952Y0163069D01*
X0225068Y0162958D01*
X0225181Y0162843D01*
X0225291Y0162726D01*
X0225398Y0162606D01*
X0225502Y0162484D01*
X0225603Y0162359D01*
X0225701Y0162231D01*
X0225796Y0162101D01*
X0225888Y0161969D01*
X0225976Y0161835D01*
X0226061Y0161698D01*
X0226143Y0161560D01*
X0226221Y0161419D01*
X0226295Y0161277D01*
X0226366Y0161133D01*
X0226434Y0160987D01*
X0226497Y0160839D01*
X0226558Y0160690D01*
X0226614Y0160539D01*
X0226667Y0160387D01*
X0226716Y0160234D01*
X0226761Y0160080D01*
X0226802Y0159925D01*
X0226840Y0159768D01*
X0226873Y0159611D01*
X0226903Y0159453D01*
X0226929Y0159294D01*
X0226950Y0159135D01*
X0226968Y0158975D01*
X0226982Y0158815D01*
X0226992Y0158654D01*
X0226998Y0158494D01*
X0227000Y0158333D01*
X0226998Y0158172D01*
X0226992Y0158012D01*
X0226982Y0157851D01*
X0226968Y0157691D01*
X0226950Y0157531D01*
X0226929Y0157372D01*
X0226903Y0157213D01*
X0226873Y0157055D01*
X0226840Y0156898D01*
X0226802Y0156741D01*
X0226761Y0156586D01*
X0226716Y0156432D01*
X0226667Y0156279D01*
X0226614Y0156127D01*
X0226558Y0155976D01*
X0226497Y0155827D01*
X0226434Y0155679D01*
X0226366Y0155533D01*
X0226295Y0155389D01*
X0226221Y0155247D01*
X0226143Y0155106D01*
X0226061Y0154968D01*
X0225976Y0154831D01*
X0225888Y0154697D01*
X0225796Y0154565D01*
X0225701Y0154435D01*
X0225603Y0154307D01*
X0225502Y0154182D01*
X0225398Y0154060D01*
X0225291Y0153940D01*
X0225181Y0153823D01*
X0225068Y0153708D01*
X0224952Y0153597D01*
X0224833Y0153488D01*
X0224712Y0153383D01*
X0224588Y0153280D01*
X0224462Y0153180D01*
X0224334Y0153084D01*
X0224203Y0152991D01*
X0224069Y0152901D01*
X0223934Y0152814D01*
X0223796Y0152731D01*
X0223657Y0152651D01*
X0223515Y0152575D01*
X0223372Y0152502D01*
X0223227Y0152433D01*
X0223080Y0152367D01*
X0222932Y0152305D01*
X0222782Y0152247D01*
X0222631Y0152192D01*
X0222478Y0152141D01*
X0222324Y0152094D01*
X0222169Y0152051D01*
X0222013Y0152012D01*
X0221857Y0151976D01*
X0221699Y0151945D01*
X0221541Y0151917D01*
X0221382Y0151893D01*
X0221222Y0151873D01*
X0221062Y0151857D01*
X0220902Y0151845D01*
X0220741Y0151837D01*
X0220580Y0151833D01*
X0220420Y0151833D01*
X0220259Y0151837D01*
X0220098Y0151845D01*
X0219938Y0151857D01*
X0219778Y0151873D01*
X0219618Y0151893D01*
X0219459Y0151917D01*
X0219301Y0151945D01*
X0219143Y0151976D01*
X0218987Y0152012D01*
X0218831Y0152051D01*
X0218676Y0152094D01*
X0218522Y0152141D01*
X0218369Y0152192D01*
X0218218Y0152247D01*
X0218068Y0152305D01*
X0217920Y0152367D01*
X0217773Y0152433D01*
X0217628Y0152502D01*
X0217485Y0152575D01*
X0217343Y0152651D01*
X0217204Y0152731D01*
X0217066Y0152814D01*
X0216931Y0152901D01*
X0216797Y0152991D01*
X0216666Y0153084D01*
X0216538Y0153180D01*
X0216412Y0153280D01*
X0216288Y0153383D01*
X0216167Y0153488D01*
X0216048Y0153597D01*
X0215932Y0153708D01*
X0215819Y0153823D01*
X0215709Y0153940D01*
X0215602Y0154060D01*
X0215498Y0154182D01*
X0215397Y0154307D01*
X0215299Y0154435D01*
X0215204Y0154565D01*
X0215112Y0154697D01*
X0215024Y0154831D01*
X0214939Y0154968D01*
X0214857Y0155106D01*
X0214779Y0155247D01*
X0214705Y0155389D01*
X0214634Y0155533D01*
X0214566Y0155679D01*
X0214503Y0155827D01*
X0214442Y0155976D01*
X0214386Y0156127D01*
X0214333Y0156279D01*
X0214284Y0156432D01*
X0214239Y0156586D01*
X0214198Y0156741D01*
X0214160Y0156898D01*
X0214127Y0157055D01*
X0214097Y0157213D01*
X0214071Y0157372D01*
X0214050Y0157531D01*
X0214032Y0157691D01*
X0214018Y0157851D01*
X0214008Y0158012D01*
X0214002Y0158172D01*
X0214000Y0158333D01*
X0236000Y0158333D02*
X0236002Y0158494D01*
X0236008Y0158654D01*
X0236018Y0158815D01*
X0236032Y0158975D01*
X0236050Y0159135D01*
X0236071Y0159294D01*
X0236097Y0159453D01*
X0236127Y0159611D01*
X0236160Y0159768D01*
X0236198Y0159925D01*
X0236239Y0160080D01*
X0236284Y0160234D01*
X0236333Y0160387D01*
X0236386Y0160539D01*
X0236442Y0160690D01*
X0236503Y0160839D01*
X0236566Y0160987D01*
X0236634Y0161133D01*
X0236705Y0161277D01*
X0236779Y0161419D01*
X0236857Y0161560D01*
X0236939Y0161698D01*
X0237024Y0161835D01*
X0237112Y0161969D01*
X0237204Y0162101D01*
X0237299Y0162231D01*
X0237397Y0162359D01*
X0237498Y0162484D01*
X0237602Y0162606D01*
X0237709Y0162726D01*
X0237819Y0162843D01*
X0237932Y0162958D01*
X0238048Y0163069D01*
X0238167Y0163178D01*
X0238288Y0163283D01*
X0238412Y0163386D01*
X0238538Y0163486D01*
X0238666Y0163582D01*
X0238797Y0163675D01*
X0238931Y0163765D01*
X0239066Y0163852D01*
X0239204Y0163935D01*
X0239343Y0164015D01*
X0239485Y0164091D01*
X0239628Y0164164D01*
X0239773Y0164233D01*
X0239920Y0164299D01*
X0240068Y0164361D01*
X0240218Y0164419D01*
X0240369Y0164474D01*
X0240522Y0164525D01*
X0240676Y0164572D01*
X0240831Y0164615D01*
X0240987Y0164654D01*
X0241143Y0164690D01*
X0241301Y0164721D01*
X0241459Y0164749D01*
X0241618Y0164773D01*
X0241778Y0164793D01*
X0241938Y0164809D01*
X0242098Y0164821D01*
X0242259Y0164829D01*
X0242420Y0164833D01*
X0242580Y0164833D01*
X0242741Y0164829D01*
X0242902Y0164821D01*
X0243062Y0164809D01*
X0243222Y0164793D01*
X0243382Y0164773D01*
X0243541Y0164749D01*
X0243699Y0164721D01*
X0243857Y0164690D01*
X0244013Y0164654D01*
X0244169Y0164615D01*
X0244324Y0164572D01*
X0244478Y0164525D01*
X0244631Y0164474D01*
X0244782Y0164419D01*
X0244932Y0164361D01*
X0245080Y0164299D01*
X0245227Y0164233D01*
X0245372Y0164164D01*
X0245515Y0164091D01*
X0245657Y0164015D01*
X0245796Y0163935D01*
X0245934Y0163852D01*
X0246069Y0163765D01*
X0246203Y0163675D01*
X0246334Y0163582D01*
X0246462Y0163486D01*
X0246588Y0163386D01*
X0246712Y0163283D01*
X0246833Y0163178D01*
X0246952Y0163069D01*
X0247068Y0162958D01*
X0247181Y0162843D01*
X0247291Y0162726D01*
X0247398Y0162606D01*
X0247502Y0162484D01*
X0247603Y0162359D01*
X0247701Y0162231D01*
X0247796Y0162101D01*
X0247888Y0161969D01*
X0247976Y0161835D01*
X0248061Y0161698D01*
X0248143Y0161560D01*
X0248221Y0161419D01*
X0248295Y0161277D01*
X0248366Y0161133D01*
X0248434Y0160987D01*
X0248497Y0160839D01*
X0248558Y0160690D01*
X0248614Y0160539D01*
X0248667Y0160387D01*
X0248716Y0160234D01*
X0248761Y0160080D01*
X0248802Y0159925D01*
X0248840Y0159768D01*
X0248873Y0159611D01*
X0248903Y0159453D01*
X0248929Y0159294D01*
X0248950Y0159135D01*
X0248968Y0158975D01*
X0248982Y0158815D01*
X0248992Y0158654D01*
X0248998Y0158494D01*
X0249000Y0158333D01*
X0248998Y0158172D01*
X0248992Y0158012D01*
X0248982Y0157851D01*
X0248968Y0157691D01*
X0248950Y0157531D01*
X0248929Y0157372D01*
X0248903Y0157213D01*
X0248873Y0157055D01*
X0248840Y0156898D01*
X0248802Y0156741D01*
X0248761Y0156586D01*
X0248716Y0156432D01*
X0248667Y0156279D01*
X0248614Y0156127D01*
X0248558Y0155976D01*
X0248497Y0155827D01*
X0248434Y0155679D01*
X0248366Y0155533D01*
X0248295Y0155389D01*
X0248221Y0155247D01*
X0248143Y0155106D01*
X0248061Y0154968D01*
X0247976Y0154831D01*
X0247888Y0154697D01*
X0247796Y0154565D01*
X0247701Y0154435D01*
X0247603Y0154307D01*
X0247502Y0154182D01*
X0247398Y0154060D01*
X0247291Y0153940D01*
X0247181Y0153823D01*
X0247068Y0153708D01*
X0246952Y0153597D01*
X0246833Y0153488D01*
X0246712Y0153383D01*
X0246588Y0153280D01*
X0246462Y0153180D01*
X0246334Y0153084D01*
X0246203Y0152991D01*
X0246069Y0152901D01*
X0245934Y0152814D01*
X0245796Y0152731D01*
X0245657Y0152651D01*
X0245515Y0152575D01*
X0245372Y0152502D01*
X0245227Y0152433D01*
X0245080Y0152367D01*
X0244932Y0152305D01*
X0244782Y0152247D01*
X0244631Y0152192D01*
X0244478Y0152141D01*
X0244324Y0152094D01*
X0244169Y0152051D01*
X0244013Y0152012D01*
X0243857Y0151976D01*
X0243699Y0151945D01*
X0243541Y0151917D01*
X0243382Y0151893D01*
X0243222Y0151873D01*
X0243062Y0151857D01*
X0242902Y0151845D01*
X0242741Y0151837D01*
X0242580Y0151833D01*
X0242420Y0151833D01*
X0242259Y0151837D01*
X0242098Y0151845D01*
X0241938Y0151857D01*
X0241778Y0151873D01*
X0241618Y0151893D01*
X0241459Y0151917D01*
X0241301Y0151945D01*
X0241143Y0151976D01*
X0240987Y0152012D01*
X0240831Y0152051D01*
X0240676Y0152094D01*
X0240522Y0152141D01*
X0240369Y0152192D01*
X0240218Y0152247D01*
X0240068Y0152305D01*
X0239920Y0152367D01*
X0239773Y0152433D01*
X0239628Y0152502D01*
X0239485Y0152575D01*
X0239343Y0152651D01*
X0239204Y0152731D01*
X0239066Y0152814D01*
X0238931Y0152901D01*
X0238797Y0152991D01*
X0238666Y0153084D01*
X0238538Y0153180D01*
X0238412Y0153280D01*
X0238288Y0153383D01*
X0238167Y0153488D01*
X0238048Y0153597D01*
X0237932Y0153708D01*
X0237819Y0153823D01*
X0237709Y0153940D01*
X0237602Y0154060D01*
X0237498Y0154182D01*
X0237397Y0154307D01*
X0237299Y0154435D01*
X0237204Y0154565D01*
X0237112Y0154697D01*
X0237024Y0154831D01*
X0236939Y0154968D01*
X0236857Y0155106D01*
X0236779Y0155247D01*
X0236705Y0155389D01*
X0236634Y0155533D01*
X0236566Y0155679D01*
X0236503Y0155827D01*
X0236442Y0155976D01*
X0236386Y0156127D01*
X0236333Y0156279D01*
X0236284Y0156432D01*
X0236239Y0156586D01*
X0236198Y0156741D01*
X0236160Y0156898D01*
X0236127Y0157055D01*
X0236097Y0157213D01*
X0236071Y0157372D01*
X0236050Y0157531D01*
X0236032Y0157691D01*
X0236018Y0157851D01*
X0236008Y0158012D01*
X0236002Y0158172D01*
X0236000Y0158333D01*
X0316000Y0158333D02*
X0316002Y0158494D01*
X0316008Y0158654D01*
X0316018Y0158815D01*
X0316032Y0158975D01*
X0316050Y0159135D01*
X0316071Y0159294D01*
X0316097Y0159453D01*
X0316127Y0159611D01*
X0316160Y0159768D01*
X0316198Y0159925D01*
X0316239Y0160080D01*
X0316284Y0160234D01*
X0316333Y0160387D01*
X0316386Y0160539D01*
X0316442Y0160690D01*
X0316503Y0160839D01*
X0316566Y0160987D01*
X0316634Y0161133D01*
X0316705Y0161277D01*
X0316779Y0161419D01*
X0316857Y0161560D01*
X0316939Y0161698D01*
X0317024Y0161835D01*
X0317112Y0161969D01*
X0317204Y0162101D01*
X0317299Y0162231D01*
X0317397Y0162359D01*
X0317498Y0162484D01*
X0317602Y0162606D01*
X0317709Y0162726D01*
X0317819Y0162843D01*
X0317932Y0162958D01*
X0318048Y0163069D01*
X0318167Y0163178D01*
X0318288Y0163283D01*
X0318412Y0163386D01*
X0318538Y0163486D01*
X0318666Y0163582D01*
X0318797Y0163675D01*
X0318931Y0163765D01*
X0319066Y0163852D01*
X0319204Y0163935D01*
X0319343Y0164015D01*
X0319485Y0164091D01*
X0319628Y0164164D01*
X0319773Y0164233D01*
X0319920Y0164299D01*
X0320068Y0164361D01*
X0320218Y0164419D01*
X0320369Y0164474D01*
X0320522Y0164525D01*
X0320676Y0164572D01*
X0320831Y0164615D01*
X0320987Y0164654D01*
X0321143Y0164690D01*
X0321301Y0164721D01*
X0321459Y0164749D01*
X0321618Y0164773D01*
X0321778Y0164793D01*
X0321938Y0164809D01*
X0322098Y0164821D01*
X0322259Y0164829D01*
X0322420Y0164833D01*
X0322580Y0164833D01*
X0322741Y0164829D01*
X0322902Y0164821D01*
X0323062Y0164809D01*
X0323222Y0164793D01*
X0323382Y0164773D01*
X0323541Y0164749D01*
X0323699Y0164721D01*
X0323857Y0164690D01*
X0324013Y0164654D01*
X0324169Y0164615D01*
X0324324Y0164572D01*
X0324478Y0164525D01*
X0324631Y0164474D01*
X0324782Y0164419D01*
X0324932Y0164361D01*
X0325080Y0164299D01*
X0325227Y0164233D01*
X0325372Y0164164D01*
X0325515Y0164091D01*
X0325657Y0164015D01*
X0325796Y0163935D01*
X0325934Y0163852D01*
X0326069Y0163765D01*
X0326203Y0163675D01*
X0326334Y0163582D01*
X0326462Y0163486D01*
X0326588Y0163386D01*
X0326712Y0163283D01*
X0326833Y0163178D01*
X0326952Y0163069D01*
X0327068Y0162958D01*
X0327181Y0162843D01*
X0327291Y0162726D01*
X0327398Y0162606D01*
X0327502Y0162484D01*
X0327603Y0162359D01*
X0327701Y0162231D01*
X0327796Y0162101D01*
X0327888Y0161969D01*
X0327976Y0161835D01*
X0328061Y0161698D01*
X0328143Y0161560D01*
X0328221Y0161419D01*
X0328295Y0161277D01*
X0328366Y0161133D01*
X0328434Y0160987D01*
X0328497Y0160839D01*
X0328558Y0160690D01*
X0328614Y0160539D01*
X0328667Y0160387D01*
X0328716Y0160234D01*
X0328761Y0160080D01*
X0328802Y0159925D01*
X0328840Y0159768D01*
X0328873Y0159611D01*
X0328903Y0159453D01*
X0328929Y0159294D01*
X0328950Y0159135D01*
X0328968Y0158975D01*
X0328982Y0158815D01*
X0328992Y0158654D01*
X0328998Y0158494D01*
X0329000Y0158333D01*
X0328998Y0158172D01*
X0328992Y0158012D01*
X0328982Y0157851D01*
X0328968Y0157691D01*
X0328950Y0157531D01*
X0328929Y0157372D01*
X0328903Y0157213D01*
X0328873Y0157055D01*
X0328840Y0156898D01*
X0328802Y0156741D01*
X0328761Y0156586D01*
X0328716Y0156432D01*
X0328667Y0156279D01*
X0328614Y0156127D01*
X0328558Y0155976D01*
X0328497Y0155827D01*
X0328434Y0155679D01*
X0328366Y0155533D01*
X0328295Y0155389D01*
X0328221Y0155247D01*
X0328143Y0155106D01*
X0328061Y0154968D01*
X0327976Y0154831D01*
X0327888Y0154697D01*
X0327796Y0154565D01*
X0327701Y0154435D01*
X0327603Y0154307D01*
X0327502Y0154182D01*
X0327398Y0154060D01*
X0327291Y0153940D01*
X0327181Y0153823D01*
X0327068Y0153708D01*
X0326952Y0153597D01*
X0326833Y0153488D01*
X0326712Y0153383D01*
X0326588Y0153280D01*
X0326462Y0153180D01*
X0326334Y0153084D01*
X0326203Y0152991D01*
X0326069Y0152901D01*
X0325934Y0152814D01*
X0325796Y0152731D01*
X0325657Y0152651D01*
X0325515Y0152575D01*
X0325372Y0152502D01*
X0325227Y0152433D01*
X0325080Y0152367D01*
X0324932Y0152305D01*
X0324782Y0152247D01*
X0324631Y0152192D01*
X0324478Y0152141D01*
X0324324Y0152094D01*
X0324169Y0152051D01*
X0324013Y0152012D01*
X0323857Y0151976D01*
X0323699Y0151945D01*
X0323541Y0151917D01*
X0323382Y0151893D01*
X0323222Y0151873D01*
X0323062Y0151857D01*
X0322902Y0151845D01*
X0322741Y0151837D01*
X0322580Y0151833D01*
X0322420Y0151833D01*
X0322259Y0151837D01*
X0322098Y0151845D01*
X0321938Y0151857D01*
X0321778Y0151873D01*
X0321618Y0151893D01*
X0321459Y0151917D01*
X0321301Y0151945D01*
X0321143Y0151976D01*
X0320987Y0152012D01*
X0320831Y0152051D01*
X0320676Y0152094D01*
X0320522Y0152141D01*
X0320369Y0152192D01*
X0320218Y0152247D01*
X0320068Y0152305D01*
X0319920Y0152367D01*
X0319773Y0152433D01*
X0319628Y0152502D01*
X0319485Y0152575D01*
X0319343Y0152651D01*
X0319204Y0152731D01*
X0319066Y0152814D01*
X0318931Y0152901D01*
X0318797Y0152991D01*
X0318666Y0153084D01*
X0318538Y0153180D01*
X0318412Y0153280D01*
X0318288Y0153383D01*
X0318167Y0153488D01*
X0318048Y0153597D01*
X0317932Y0153708D01*
X0317819Y0153823D01*
X0317709Y0153940D01*
X0317602Y0154060D01*
X0317498Y0154182D01*
X0317397Y0154307D01*
X0317299Y0154435D01*
X0317204Y0154565D01*
X0317112Y0154697D01*
X0317024Y0154831D01*
X0316939Y0154968D01*
X0316857Y0155106D01*
X0316779Y0155247D01*
X0316705Y0155389D01*
X0316634Y0155533D01*
X0316566Y0155679D01*
X0316503Y0155827D01*
X0316442Y0155976D01*
X0316386Y0156127D01*
X0316333Y0156279D01*
X0316284Y0156432D01*
X0316239Y0156586D01*
X0316198Y0156741D01*
X0316160Y0156898D01*
X0316127Y0157055D01*
X0316097Y0157213D01*
X0316071Y0157372D01*
X0316050Y0157531D01*
X0316032Y0157691D01*
X0316018Y0157851D01*
X0316008Y0158012D01*
X0316002Y0158172D01*
X0316000Y0158333D01*
X0316000Y0260333D02*
X0316002Y0260494D01*
X0316008Y0260654D01*
X0316018Y0260815D01*
X0316032Y0260975D01*
X0316050Y0261135D01*
X0316071Y0261294D01*
X0316097Y0261453D01*
X0316127Y0261611D01*
X0316160Y0261768D01*
X0316198Y0261925D01*
X0316239Y0262080D01*
X0316284Y0262234D01*
X0316333Y0262387D01*
X0316386Y0262539D01*
X0316442Y0262690D01*
X0316503Y0262839D01*
X0316566Y0262987D01*
X0316634Y0263133D01*
X0316705Y0263277D01*
X0316779Y0263419D01*
X0316857Y0263560D01*
X0316939Y0263698D01*
X0317024Y0263835D01*
X0317112Y0263969D01*
X0317204Y0264101D01*
X0317299Y0264231D01*
X0317397Y0264359D01*
X0317498Y0264484D01*
X0317602Y0264606D01*
X0317709Y0264726D01*
X0317819Y0264843D01*
X0317932Y0264958D01*
X0318048Y0265069D01*
X0318167Y0265178D01*
X0318288Y0265283D01*
X0318412Y0265386D01*
X0318538Y0265486D01*
X0318666Y0265582D01*
X0318797Y0265675D01*
X0318931Y0265765D01*
X0319066Y0265852D01*
X0319204Y0265935D01*
X0319343Y0266015D01*
X0319485Y0266091D01*
X0319628Y0266164D01*
X0319773Y0266233D01*
X0319920Y0266299D01*
X0320068Y0266361D01*
X0320218Y0266419D01*
X0320369Y0266474D01*
X0320522Y0266525D01*
X0320676Y0266572D01*
X0320831Y0266615D01*
X0320987Y0266654D01*
X0321143Y0266690D01*
X0321301Y0266721D01*
X0321459Y0266749D01*
X0321618Y0266773D01*
X0321778Y0266793D01*
X0321938Y0266809D01*
X0322098Y0266821D01*
X0322259Y0266829D01*
X0322420Y0266833D01*
X0322580Y0266833D01*
X0322741Y0266829D01*
X0322902Y0266821D01*
X0323062Y0266809D01*
X0323222Y0266793D01*
X0323382Y0266773D01*
X0323541Y0266749D01*
X0323699Y0266721D01*
X0323857Y0266690D01*
X0324013Y0266654D01*
X0324169Y0266615D01*
X0324324Y0266572D01*
X0324478Y0266525D01*
X0324631Y0266474D01*
X0324782Y0266419D01*
X0324932Y0266361D01*
X0325080Y0266299D01*
X0325227Y0266233D01*
X0325372Y0266164D01*
X0325515Y0266091D01*
X0325657Y0266015D01*
X0325796Y0265935D01*
X0325934Y0265852D01*
X0326069Y0265765D01*
X0326203Y0265675D01*
X0326334Y0265582D01*
X0326462Y0265486D01*
X0326588Y0265386D01*
X0326712Y0265283D01*
X0326833Y0265178D01*
X0326952Y0265069D01*
X0327068Y0264958D01*
X0327181Y0264843D01*
X0327291Y0264726D01*
X0327398Y0264606D01*
X0327502Y0264484D01*
X0327603Y0264359D01*
X0327701Y0264231D01*
X0327796Y0264101D01*
X0327888Y0263969D01*
X0327976Y0263835D01*
X0328061Y0263698D01*
X0328143Y0263560D01*
X0328221Y0263419D01*
X0328295Y0263277D01*
X0328366Y0263133D01*
X0328434Y0262987D01*
X0328497Y0262839D01*
X0328558Y0262690D01*
X0328614Y0262539D01*
X0328667Y0262387D01*
X0328716Y0262234D01*
X0328761Y0262080D01*
X0328802Y0261925D01*
X0328840Y0261768D01*
X0328873Y0261611D01*
X0328903Y0261453D01*
X0328929Y0261294D01*
X0328950Y0261135D01*
X0328968Y0260975D01*
X0328982Y0260815D01*
X0328992Y0260654D01*
X0328998Y0260494D01*
X0329000Y0260333D01*
X0328998Y0260172D01*
X0328992Y0260012D01*
X0328982Y0259851D01*
X0328968Y0259691D01*
X0328950Y0259531D01*
X0328929Y0259372D01*
X0328903Y0259213D01*
X0328873Y0259055D01*
X0328840Y0258898D01*
X0328802Y0258741D01*
X0328761Y0258586D01*
X0328716Y0258432D01*
X0328667Y0258279D01*
X0328614Y0258127D01*
X0328558Y0257976D01*
X0328497Y0257827D01*
X0328434Y0257679D01*
X0328366Y0257533D01*
X0328295Y0257389D01*
X0328221Y0257247D01*
X0328143Y0257106D01*
X0328061Y0256968D01*
X0327976Y0256831D01*
X0327888Y0256697D01*
X0327796Y0256565D01*
X0327701Y0256435D01*
X0327603Y0256307D01*
X0327502Y0256182D01*
X0327398Y0256060D01*
X0327291Y0255940D01*
X0327181Y0255823D01*
X0327068Y0255708D01*
X0326952Y0255597D01*
X0326833Y0255488D01*
X0326712Y0255383D01*
X0326588Y0255280D01*
X0326462Y0255180D01*
X0326334Y0255084D01*
X0326203Y0254991D01*
X0326069Y0254901D01*
X0325934Y0254814D01*
X0325796Y0254731D01*
X0325657Y0254651D01*
X0325515Y0254575D01*
X0325372Y0254502D01*
X0325227Y0254433D01*
X0325080Y0254367D01*
X0324932Y0254305D01*
X0324782Y0254247D01*
X0324631Y0254192D01*
X0324478Y0254141D01*
X0324324Y0254094D01*
X0324169Y0254051D01*
X0324013Y0254012D01*
X0323857Y0253976D01*
X0323699Y0253945D01*
X0323541Y0253917D01*
X0323382Y0253893D01*
X0323222Y0253873D01*
X0323062Y0253857D01*
X0322902Y0253845D01*
X0322741Y0253837D01*
X0322580Y0253833D01*
X0322420Y0253833D01*
X0322259Y0253837D01*
X0322098Y0253845D01*
X0321938Y0253857D01*
X0321778Y0253873D01*
X0321618Y0253893D01*
X0321459Y0253917D01*
X0321301Y0253945D01*
X0321143Y0253976D01*
X0320987Y0254012D01*
X0320831Y0254051D01*
X0320676Y0254094D01*
X0320522Y0254141D01*
X0320369Y0254192D01*
X0320218Y0254247D01*
X0320068Y0254305D01*
X0319920Y0254367D01*
X0319773Y0254433D01*
X0319628Y0254502D01*
X0319485Y0254575D01*
X0319343Y0254651D01*
X0319204Y0254731D01*
X0319066Y0254814D01*
X0318931Y0254901D01*
X0318797Y0254991D01*
X0318666Y0255084D01*
X0318538Y0255180D01*
X0318412Y0255280D01*
X0318288Y0255383D01*
X0318167Y0255488D01*
X0318048Y0255597D01*
X0317932Y0255708D01*
X0317819Y0255823D01*
X0317709Y0255940D01*
X0317602Y0256060D01*
X0317498Y0256182D01*
X0317397Y0256307D01*
X0317299Y0256435D01*
X0317204Y0256565D01*
X0317112Y0256697D01*
X0317024Y0256831D01*
X0316939Y0256968D01*
X0316857Y0257106D01*
X0316779Y0257247D01*
X0316705Y0257389D01*
X0316634Y0257533D01*
X0316566Y0257679D01*
X0316503Y0257827D01*
X0316442Y0257976D01*
X0316386Y0258127D01*
X0316333Y0258279D01*
X0316284Y0258432D01*
X0316239Y0258586D01*
X0316198Y0258741D01*
X0316160Y0258898D01*
X0316127Y0259055D01*
X0316097Y0259213D01*
X0316071Y0259372D01*
X0316050Y0259531D01*
X0316032Y0259691D01*
X0316018Y0259851D01*
X0316008Y0260012D01*
X0316002Y0260172D01*
X0316000Y0260333D01*
X0316000Y0362333D02*
X0316002Y0362494D01*
X0316008Y0362654D01*
X0316018Y0362815D01*
X0316032Y0362975D01*
X0316050Y0363135D01*
X0316071Y0363294D01*
X0316097Y0363453D01*
X0316127Y0363611D01*
X0316160Y0363768D01*
X0316198Y0363925D01*
X0316239Y0364080D01*
X0316284Y0364234D01*
X0316333Y0364387D01*
X0316386Y0364539D01*
X0316442Y0364690D01*
X0316503Y0364839D01*
X0316566Y0364987D01*
X0316634Y0365133D01*
X0316705Y0365277D01*
X0316779Y0365419D01*
X0316857Y0365560D01*
X0316939Y0365698D01*
X0317024Y0365835D01*
X0317112Y0365969D01*
X0317204Y0366101D01*
X0317299Y0366231D01*
X0317397Y0366359D01*
X0317498Y0366484D01*
X0317602Y0366606D01*
X0317709Y0366726D01*
X0317819Y0366843D01*
X0317932Y0366958D01*
X0318048Y0367069D01*
X0318167Y0367178D01*
X0318288Y0367283D01*
X0318412Y0367386D01*
X0318538Y0367486D01*
X0318666Y0367582D01*
X0318797Y0367675D01*
X0318931Y0367765D01*
X0319066Y0367852D01*
X0319204Y0367935D01*
X0319343Y0368015D01*
X0319485Y0368091D01*
X0319628Y0368164D01*
X0319773Y0368233D01*
X0319920Y0368299D01*
X0320068Y0368361D01*
X0320218Y0368419D01*
X0320369Y0368474D01*
X0320522Y0368525D01*
X0320676Y0368572D01*
X0320831Y0368615D01*
X0320987Y0368654D01*
X0321143Y0368690D01*
X0321301Y0368721D01*
X0321459Y0368749D01*
X0321618Y0368773D01*
X0321778Y0368793D01*
X0321938Y0368809D01*
X0322098Y0368821D01*
X0322259Y0368829D01*
X0322420Y0368833D01*
X0322580Y0368833D01*
X0322741Y0368829D01*
X0322902Y0368821D01*
X0323062Y0368809D01*
X0323222Y0368793D01*
X0323382Y0368773D01*
X0323541Y0368749D01*
X0323699Y0368721D01*
X0323857Y0368690D01*
X0324013Y0368654D01*
X0324169Y0368615D01*
X0324324Y0368572D01*
X0324478Y0368525D01*
X0324631Y0368474D01*
X0324782Y0368419D01*
X0324932Y0368361D01*
X0325080Y0368299D01*
X0325227Y0368233D01*
X0325372Y0368164D01*
X0325515Y0368091D01*
X0325657Y0368015D01*
X0325796Y0367935D01*
X0325934Y0367852D01*
X0326069Y0367765D01*
X0326203Y0367675D01*
X0326334Y0367582D01*
X0326462Y0367486D01*
X0326588Y0367386D01*
X0326712Y0367283D01*
X0326833Y0367178D01*
X0326952Y0367069D01*
X0327068Y0366958D01*
X0327181Y0366843D01*
X0327291Y0366726D01*
X0327398Y0366606D01*
X0327502Y0366484D01*
X0327603Y0366359D01*
X0327701Y0366231D01*
X0327796Y0366101D01*
X0327888Y0365969D01*
X0327976Y0365835D01*
X0328061Y0365698D01*
X0328143Y0365560D01*
X0328221Y0365419D01*
X0328295Y0365277D01*
X0328366Y0365133D01*
X0328434Y0364987D01*
X0328497Y0364839D01*
X0328558Y0364690D01*
X0328614Y0364539D01*
X0328667Y0364387D01*
X0328716Y0364234D01*
X0328761Y0364080D01*
X0328802Y0363925D01*
X0328840Y0363768D01*
X0328873Y0363611D01*
X0328903Y0363453D01*
X0328929Y0363294D01*
X0328950Y0363135D01*
X0328968Y0362975D01*
X0328982Y0362815D01*
X0328992Y0362654D01*
X0328998Y0362494D01*
X0329000Y0362333D01*
X0328998Y0362172D01*
X0328992Y0362012D01*
X0328982Y0361851D01*
X0328968Y0361691D01*
X0328950Y0361531D01*
X0328929Y0361372D01*
X0328903Y0361213D01*
X0328873Y0361055D01*
X0328840Y0360898D01*
X0328802Y0360741D01*
X0328761Y0360586D01*
X0328716Y0360432D01*
X0328667Y0360279D01*
X0328614Y0360127D01*
X0328558Y0359976D01*
X0328497Y0359827D01*
X0328434Y0359679D01*
X0328366Y0359533D01*
X0328295Y0359389D01*
X0328221Y0359247D01*
X0328143Y0359106D01*
X0328061Y0358968D01*
X0327976Y0358831D01*
X0327888Y0358697D01*
X0327796Y0358565D01*
X0327701Y0358435D01*
X0327603Y0358307D01*
X0327502Y0358182D01*
X0327398Y0358060D01*
X0327291Y0357940D01*
X0327181Y0357823D01*
X0327068Y0357708D01*
X0326952Y0357597D01*
X0326833Y0357488D01*
X0326712Y0357383D01*
X0326588Y0357280D01*
X0326462Y0357180D01*
X0326334Y0357084D01*
X0326203Y0356991D01*
X0326069Y0356901D01*
X0325934Y0356814D01*
X0325796Y0356731D01*
X0325657Y0356651D01*
X0325515Y0356575D01*
X0325372Y0356502D01*
X0325227Y0356433D01*
X0325080Y0356367D01*
X0324932Y0356305D01*
X0324782Y0356247D01*
X0324631Y0356192D01*
X0324478Y0356141D01*
X0324324Y0356094D01*
X0324169Y0356051D01*
X0324013Y0356012D01*
X0323857Y0355976D01*
X0323699Y0355945D01*
X0323541Y0355917D01*
X0323382Y0355893D01*
X0323222Y0355873D01*
X0323062Y0355857D01*
X0322902Y0355845D01*
X0322741Y0355837D01*
X0322580Y0355833D01*
X0322420Y0355833D01*
X0322259Y0355837D01*
X0322098Y0355845D01*
X0321938Y0355857D01*
X0321778Y0355873D01*
X0321618Y0355893D01*
X0321459Y0355917D01*
X0321301Y0355945D01*
X0321143Y0355976D01*
X0320987Y0356012D01*
X0320831Y0356051D01*
X0320676Y0356094D01*
X0320522Y0356141D01*
X0320369Y0356192D01*
X0320218Y0356247D01*
X0320068Y0356305D01*
X0319920Y0356367D01*
X0319773Y0356433D01*
X0319628Y0356502D01*
X0319485Y0356575D01*
X0319343Y0356651D01*
X0319204Y0356731D01*
X0319066Y0356814D01*
X0318931Y0356901D01*
X0318797Y0356991D01*
X0318666Y0357084D01*
X0318538Y0357180D01*
X0318412Y0357280D01*
X0318288Y0357383D01*
X0318167Y0357488D01*
X0318048Y0357597D01*
X0317932Y0357708D01*
X0317819Y0357823D01*
X0317709Y0357940D01*
X0317602Y0358060D01*
X0317498Y0358182D01*
X0317397Y0358307D01*
X0317299Y0358435D01*
X0317204Y0358565D01*
X0317112Y0358697D01*
X0317024Y0358831D01*
X0316939Y0358968D01*
X0316857Y0359106D01*
X0316779Y0359247D01*
X0316705Y0359389D01*
X0316634Y0359533D01*
X0316566Y0359679D01*
X0316503Y0359827D01*
X0316442Y0359976D01*
X0316386Y0360127D01*
X0316333Y0360279D01*
X0316284Y0360432D01*
X0316239Y0360586D01*
X0316198Y0360741D01*
X0316160Y0360898D01*
X0316127Y0361055D01*
X0316097Y0361213D01*
X0316071Y0361372D01*
X0316050Y0361531D01*
X0316032Y0361691D01*
X0316018Y0361851D01*
X0316008Y0362012D01*
X0316002Y0362172D01*
X0316000Y0362333D01*
X0236000Y0362333D02*
X0236002Y0362494D01*
X0236008Y0362654D01*
X0236018Y0362815D01*
X0236032Y0362975D01*
X0236050Y0363135D01*
X0236071Y0363294D01*
X0236097Y0363453D01*
X0236127Y0363611D01*
X0236160Y0363768D01*
X0236198Y0363925D01*
X0236239Y0364080D01*
X0236284Y0364234D01*
X0236333Y0364387D01*
X0236386Y0364539D01*
X0236442Y0364690D01*
X0236503Y0364839D01*
X0236566Y0364987D01*
X0236634Y0365133D01*
X0236705Y0365277D01*
X0236779Y0365419D01*
X0236857Y0365560D01*
X0236939Y0365698D01*
X0237024Y0365835D01*
X0237112Y0365969D01*
X0237204Y0366101D01*
X0237299Y0366231D01*
X0237397Y0366359D01*
X0237498Y0366484D01*
X0237602Y0366606D01*
X0237709Y0366726D01*
X0237819Y0366843D01*
X0237932Y0366958D01*
X0238048Y0367069D01*
X0238167Y0367178D01*
X0238288Y0367283D01*
X0238412Y0367386D01*
X0238538Y0367486D01*
X0238666Y0367582D01*
X0238797Y0367675D01*
X0238931Y0367765D01*
X0239066Y0367852D01*
X0239204Y0367935D01*
X0239343Y0368015D01*
X0239485Y0368091D01*
X0239628Y0368164D01*
X0239773Y0368233D01*
X0239920Y0368299D01*
X0240068Y0368361D01*
X0240218Y0368419D01*
X0240369Y0368474D01*
X0240522Y0368525D01*
X0240676Y0368572D01*
X0240831Y0368615D01*
X0240987Y0368654D01*
X0241143Y0368690D01*
X0241301Y0368721D01*
X0241459Y0368749D01*
X0241618Y0368773D01*
X0241778Y0368793D01*
X0241938Y0368809D01*
X0242098Y0368821D01*
X0242259Y0368829D01*
X0242420Y0368833D01*
X0242580Y0368833D01*
X0242741Y0368829D01*
X0242902Y0368821D01*
X0243062Y0368809D01*
X0243222Y0368793D01*
X0243382Y0368773D01*
X0243541Y0368749D01*
X0243699Y0368721D01*
X0243857Y0368690D01*
X0244013Y0368654D01*
X0244169Y0368615D01*
X0244324Y0368572D01*
X0244478Y0368525D01*
X0244631Y0368474D01*
X0244782Y0368419D01*
X0244932Y0368361D01*
X0245080Y0368299D01*
X0245227Y0368233D01*
X0245372Y0368164D01*
X0245515Y0368091D01*
X0245657Y0368015D01*
X0245796Y0367935D01*
X0245934Y0367852D01*
X0246069Y0367765D01*
X0246203Y0367675D01*
X0246334Y0367582D01*
X0246462Y0367486D01*
X0246588Y0367386D01*
X0246712Y0367283D01*
X0246833Y0367178D01*
X0246952Y0367069D01*
X0247068Y0366958D01*
X0247181Y0366843D01*
X0247291Y0366726D01*
X0247398Y0366606D01*
X0247502Y0366484D01*
X0247603Y0366359D01*
X0247701Y0366231D01*
X0247796Y0366101D01*
X0247888Y0365969D01*
X0247976Y0365835D01*
X0248061Y0365698D01*
X0248143Y0365560D01*
X0248221Y0365419D01*
X0248295Y0365277D01*
X0248366Y0365133D01*
X0248434Y0364987D01*
X0248497Y0364839D01*
X0248558Y0364690D01*
X0248614Y0364539D01*
X0248667Y0364387D01*
X0248716Y0364234D01*
X0248761Y0364080D01*
X0248802Y0363925D01*
X0248840Y0363768D01*
X0248873Y0363611D01*
X0248903Y0363453D01*
X0248929Y0363294D01*
X0248950Y0363135D01*
X0248968Y0362975D01*
X0248982Y0362815D01*
X0248992Y0362654D01*
X0248998Y0362494D01*
X0249000Y0362333D01*
X0248998Y0362172D01*
X0248992Y0362012D01*
X0248982Y0361851D01*
X0248968Y0361691D01*
X0248950Y0361531D01*
X0248929Y0361372D01*
X0248903Y0361213D01*
X0248873Y0361055D01*
X0248840Y0360898D01*
X0248802Y0360741D01*
X0248761Y0360586D01*
X0248716Y0360432D01*
X0248667Y0360279D01*
X0248614Y0360127D01*
X0248558Y0359976D01*
X0248497Y0359827D01*
X0248434Y0359679D01*
X0248366Y0359533D01*
X0248295Y0359389D01*
X0248221Y0359247D01*
X0248143Y0359106D01*
X0248061Y0358968D01*
X0247976Y0358831D01*
X0247888Y0358697D01*
X0247796Y0358565D01*
X0247701Y0358435D01*
X0247603Y0358307D01*
X0247502Y0358182D01*
X0247398Y0358060D01*
X0247291Y0357940D01*
X0247181Y0357823D01*
X0247068Y0357708D01*
X0246952Y0357597D01*
X0246833Y0357488D01*
X0246712Y0357383D01*
X0246588Y0357280D01*
X0246462Y0357180D01*
X0246334Y0357084D01*
X0246203Y0356991D01*
X0246069Y0356901D01*
X0245934Y0356814D01*
X0245796Y0356731D01*
X0245657Y0356651D01*
X0245515Y0356575D01*
X0245372Y0356502D01*
X0245227Y0356433D01*
X0245080Y0356367D01*
X0244932Y0356305D01*
X0244782Y0356247D01*
X0244631Y0356192D01*
X0244478Y0356141D01*
X0244324Y0356094D01*
X0244169Y0356051D01*
X0244013Y0356012D01*
X0243857Y0355976D01*
X0243699Y0355945D01*
X0243541Y0355917D01*
X0243382Y0355893D01*
X0243222Y0355873D01*
X0243062Y0355857D01*
X0242902Y0355845D01*
X0242741Y0355837D01*
X0242580Y0355833D01*
X0242420Y0355833D01*
X0242259Y0355837D01*
X0242098Y0355845D01*
X0241938Y0355857D01*
X0241778Y0355873D01*
X0241618Y0355893D01*
X0241459Y0355917D01*
X0241301Y0355945D01*
X0241143Y0355976D01*
X0240987Y0356012D01*
X0240831Y0356051D01*
X0240676Y0356094D01*
X0240522Y0356141D01*
X0240369Y0356192D01*
X0240218Y0356247D01*
X0240068Y0356305D01*
X0239920Y0356367D01*
X0239773Y0356433D01*
X0239628Y0356502D01*
X0239485Y0356575D01*
X0239343Y0356651D01*
X0239204Y0356731D01*
X0239066Y0356814D01*
X0238931Y0356901D01*
X0238797Y0356991D01*
X0238666Y0357084D01*
X0238538Y0357180D01*
X0238412Y0357280D01*
X0238288Y0357383D01*
X0238167Y0357488D01*
X0238048Y0357597D01*
X0237932Y0357708D01*
X0237819Y0357823D01*
X0237709Y0357940D01*
X0237602Y0358060D01*
X0237498Y0358182D01*
X0237397Y0358307D01*
X0237299Y0358435D01*
X0237204Y0358565D01*
X0237112Y0358697D01*
X0237024Y0358831D01*
X0236939Y0358968D01*
X0236857Y0359106D01*
X0236779Y0359247D01*
X0236705Y0359389D01*
X0236634Y0359533D01*
X0236566Y0359679D01*
X0236503Y0359827D01*
X0236442Y0359976D01*
X0236386Y0360127D01*
X0236333Y0360279D01*
X0236284Y0360432D01*
X0236239Y0360586D01*
X0236198Y0360741D01*
X0236160Y0360898D01*
X0236127Y0361055D01*
X0236097Y0361213D01*
X0236071Y0361372D01*
X0236050Y0361531D01*
X0236032Y0361691D01*
X0236018Y0361851D01*
X0236008Y0362012D01*
X0236002Y0362172D01*
X0236000Y0362333D01*
X0214000Y0362333D02*
X0214002Y0362494D01*
X0214008Y0362654D01*
X0214018Y0362815D01*
X0214032Y0362975D01*
X0214050Y0363135D01*
X0214071Y0363294D01*
X0214097Y0363453D01*
X0214127Y0363611D01*
X0214160Y0363768D01*
X0214198Y0363925D01*
X0214239Y0364080D01*
X0214284Y0364234D01*
X0214333Y0364387D01*
X0214386Y0364539D01*
X0214442Y0364690D01*
X0214503Y0364839D01*
X0214566Y0364987D01*
X0214634Y0365133D01*
X0214705Y0365277D01*
X0214779Y0365419D01*
X0214857Y0365560D01*
X0214939Y0365698D01*
X0215024Y0365835D01*
X0215112Y0365969D01*
X0215204Y0366101D01*
X0215299Y0366231D01*
X0215397Y0366359D01*
X0215498Y0366484D01*
X0215602Y0366606D01*
X0215709Y0366726D01*
X0215819Y0366843D01*
X0215932Y0366958D01*
X0216048Y0367069D01*
X0216167Y0367178D01*
X0216288Y0367283D01*
X0216412Y0367386D01*
X0216538Y0367486D01*
X0216666Y0367582D01*
X0216797Y0367675D01*
X0216931Y0367765D01*
X0217066Y0367852D01*
X0217204Y0367935D01*
X0217343Y0368015D01*
X0217485Y0368091D01*
X0217628Y0368164D01*
X0217773Y0368233D01*
X0217920Y0368299D01*
X0218068Y0368361D01*
X0218218Y0368419D01*
X0218369Y0368474D01*
X0218522Y0368525D01*
X0218676Y0368572D01*
X0218831Y0368615D01*
X0218987Y0368654D01*
X0219143Y0368690D01*
X0219301Y0368721D01*
X0219459Y0368749D01*
X0219618Y0368773D01*
X0219778Y0368793D01*
X0219938Y0368809D01*
X0220098Y0368821D01*
X0220259Y0368829D01*
X0220420Y0368833D01*
X0220580Y0368833D01*
X0220741Y0368829D01*
X0220902Y0368821D01*
X0221062Y0368809D01*
X0221222Y0368793D01*
X0221382Y0368773D01*
X0221541Y0368749D01*
X0221699Y0368721D01*
X0221857Y0368690D01*
X0222013Y0368654D01*
X0222169Y0368615D01*
X0222324Y0368572D01*
X0222478Y0368525D01*
X0222631Y0368474D01*
X0222782Y0368419D01*
X0222932Y0368361D01*
X0223080Y0368299D01*
X0223227Y0368233D01*
X0223372Y0368164D01*
X0223515Y0368091D01*
X0223657Y0368015D01*
X0223796Y0367935D01*
X0223934Y0367852D01*
X0224069Y0367765D01*
X0224203Y0367675D01*
X0224334Y0367582D01*
X0224462Y0367486D01*
X0224588Y0367386D01*
X0224712Y0367283D01*
X0224833Y0367178D01*
X0224952Y0367069D01*
X0225068Y0366958D01*
X0225181Y0366843D01*
X0225291Y0366726D01*
X0225398Y0366606D01*
X0225502Y0366484D01*
X0225603Y0366359D01*
X0225701Y0366231D01*
X0225796Y0366101D01*
X0225888Y0365969D01*
X0225976Y0365835D01*
X0226061Y0365698D01*
X0226143Y0365560D01*
X0226221Y0365419D01*
X0226295Y0365277D01*
X0226366Y0365133D01*
X0226434Y0364987D01*
X0226497Y0364839D01*
X0226558Y0364690D01*
X0226614Y0364539D01*
X0226667Y0364387D01*
X0226716Y0364234D01*
X0226761Y0364080D01*
X0226802Y0363925D01*
X0226840Y0363768D01*
X0226873Y0363611D01*
X0226903Y0363453D01*
X0226929Y0363294D01*
X0226950Y0363135D01*
X0226968Y0362975D01*
X0226982Y0362815D01*
X0226992Y0362654D01*
X0226998Y0362494D01*
X0227000Y0362333D01*
X0226998Y0362172D01*
X0226992Y0362012D01*
X0226982Y0361851D01*
X0226968Y0361691D01*
X0226950Y0361531D01*
X0226929Y0361372D01*
X0226903Y0361213D01*
X0226873Y0361055D01*
X0226840Y0360898D01*
X0226802Y0360741D01*
X0226761Y0360586D01*
X0226716Y0360432D01*
X0226667Y0360279D01*
X0226614Y0360127D01*
X0226558Y0359976D01*
X0226497Y0359827D01*
X0226434Y0359679D01*
X0226366Y0359533D01*
X0226295Y0359389D01*
X0226221Y0359247D01*
X0226143Y0359106D01*
X0226061Y0358968D01*
X0225976Y0358831D01*
X0225888Y0358697D01*
X0225796Y0358565D01*
X0225701Y0358435D01*
X0225603Y0358307D01*
X0225502Y0358182D01*
X0225398Y0358060D01*
X0225291Y0357940D01*
X0225181Y0357823D01*
X0225068Y0357708D01*
X0224952Y0357597D01*
X0224833Y0357488D01*
X0224712Y0357383D01*
X0224588Y0357280D01*
X0224462Y0357180D01*
X0224334Y0357084D01*
X0224203Y0356991D01*
X0224069Y0356901D01*
X0223934Y0356814D01*
X0223796Y0356731D01*
X0223657Y0356651D01*
X0223515Y0356575D01*
X0223372Y0356502D01*
X0223227Y0356433D01*
X0223080Y0356367D01*
X0222932Y0356305D01*
X0222782Y0356247D01*
X0222631Y0356192D01*
X0222478Y0356141D01*
X0222324Y0356094D01*
X0222169Y0356051D01*
X0222013Y0356012D01*
X0221857Y0355976D01*
X0221699Y0355945D01*
X0221541Y0355917D01*
X0221382Y0355893D01*
X0221222Y0355873D01*
X0221062Y0355857D01*
X0220902Y0355845D01*
X0220741Y0355837D01*
X0220580Y0355833D01*
X0220420Y0355833D01*
X0220259Y0355837D01*
X0220098Y0355845D01*
X0219938Y0355857D01*
X0219778Y0355873D01*
X0219618Y0355893D01*
X0219459Y0355917D01*
X0219301Y0355945D01*
X0219143Y0355976D01*
X0218987Y0356012D01*
X0218831Y0356051D01*
X0218676Y0356094D01*
X0218522Y0356141D01*
X0218369Y0356192D01*
X0218218Y0356247D01*
X0218068Y0356305D01*
X0217920Y0356367D01*
X0217773Y0356433D01*
X0217628Y0356502D01*
X0217485Y0356575D01*
X0217343Y0356651D01*
X0217204Y0356731D01*
X0217066Y0356814D01*
X0216931Y0356901D01*
X0216797Y0356991D01*
X0216666Y0357084D01*
X0216538Y0357180D01*
X0216412Y0357280D01*
X0216288Y0357383D01*
X0216167Y0357488D01*
X0216048Y0357597D01*
X0215932Y0357708D01*
X0215819Y0357823D01*
X0215709Y0357940D01*
X0215602Y0358060D01*
X0215498Y0358182D01*
X0215397Y0358307D01*
X0215299Y0358435D01*
X0215204Y0358565D01*
X0215112Y0358697D01*
X0215024Y0358831D01*
X0214939Y0358968D01*
X0214857Y0359106D01*
X0214779Y0359247D01*
X0214705Y0359389D01*
X0214634Y0359533D01*
X0214566Y0359679D01*
X0214503Y0359827D01*
X0214442Y0359976D01*
X0214386Y0360127D01*
X0214333Y0360279D01*
X0214284Y0360432D01*
X0214239Y0360586D01*
X0214198Y0360741D01*
X0214160Y0360898D01*
X0214127Y0361055D01*
X0214097Y0361213D01*
X0214071Y0361372D01*
X0214050Y0361531D01*
X0214032Y0361691D01*
X0214018Y0361851D01*
X0214008Y0362012D01*
X0214002Y0362172D01*
X0214000Y0362333D01*
X0134000Y0362333D02*
X0134002Y0362494D01*
X0134008Y0362654D01*
X0134018Y0362815D01*
X0134032Y0362975D01*
X0134050Y0363135D01*
X0134071Y0363294D01*
X0134097Y0363453D01*
X0134127Y0363611D01*
X0134160Y0363768D01*
X0134198Y0363925D01*
X0134239Y0364080D01*
X0134284Y0364234D01*
X0134333Y0364387D01*
X0134386Y0364539D01*
X0134442Y0364690D01*
X0134503Y0364839D01*
X0134566Y0364987D01*
X0134634Y0365133D01*
X0134705Y0365277D01*
X0134779Y0365419D01*
X0134857Y0365560D01*
X0134939Y0365698D01*
X0135024Y0365835D01*
X0135112Y0365969D01*
X0135204Y0366101D01*
X0135299Y0366231D01*
X0135397Y0366359D01*
X0135498Y0366484D01*
X0135602Y0366606D01*
X0135709Y0366726D01*
X0135819Y0366843D01*
X0135932Y0366958D01*
X0136048Y0367069D01*
X0136167Y0367178D01*
X0136288Y0367283D01*
X0136412Y0367386D01*
X0136538Y0367486D01*
X0136666Y0367582D01*
X0136797Y0367675D01*
X0136931Y0367765D01*
X0137066Y0367852D01*
X0137204Y0367935D01*
X0137343Y0368015D01*
X0137485Y0368091D01*
X0137628Y0368164D01*
X0137773Y0368233D01*
X0137920Y0368299D01*
X0138068Y0368361D01*
X0138218Y0368419D01*
X0138369Y0368474D01*
X0138522Y0368525D01*
X0138676Y0368572D01*
X0138831Y0368615D01*
X0138987Y0368654D01*
X0139143Y0368690D01*
X0139301Y0368721D01*
X0139459Y0368749D01*
X0139618Y0368773D01*
X0139778Y0368793D01*
X0139938Y0368809D01*
X0140098Y0368821D01*
X0140259Y0368829D01*
X0140420Y0368833D01*
X0140580Y0368833D01*
X0140741Y0368829D01*
X0140902Y0368821D01*
X0141062Y0368809D01*
X0141222Y0368793D01*
X0141382Y0368773D01*
X0141541Y0368749D01*
X0141699Y0368721D01*
X0141857Y0368690D01*
X0142013Y0368654D01*
X0142169Y0368615D01*
X0142324Y0368572D01*
X0142478Y0368525D01*
X0142631Y0368474D01*
X0142782Y0368419D01*
X0142932Y0368361D01*
X0143080Y0368299D01*
X0143227Y0368233D01*
X0143372Y0368164D01*
X0143515Y0368091D01*
X0143657Y0368015D01*
X0143796Y0367935D01*
X0143934Y0367852D01*
X0144069Y0367765D01*
X0144203Y0367675D01*
X0144334Y0367582D01*
X0144462Y0367486D01*
X0144588Y0367386D01*
X0144712Y0367283D01*
X0144833Y0367178D01*
X0144952Y0367069D01*
X0145068Y0366958D01*
X0145181Y0366843D01*
X0145291Y0366726D01*
X0145398Y0366606D01*
X0145502Y0366484D01*
X0145603Y0366359D01*
X0145701Y0366231D01*
X0145796Y0366101D01*
X0145888Y0365969D01*
X0145976Y0365835D01*
X0146061Y0365698D01*
X0146143Y0365560D01*
X0146221Y0365419D01*
X0146295Y0365277D01*
X0146366Y0365133D01*
X0146434Y0364987D01*
X0146497Y0364839D01*
X0146558Y0364690D01*
X0146614Y0364539D01*
X0146667Y0364387D01*
X0146716Y0364234D01*
X0146761Y0364080D01*
X0146802Y0363925D01*
X0146840Y0363768D01*
X0146873Y0363611D01*
X0146903Y0363453D01*
X0146929Y0363294D01*
X0146950Y0363135D01*
X0146968Y0362975D01*
X0146982Y0362815D01*
X0146992Y0362654D01*
X0146998Y0362494D01*
X0147000Y0362333D01*
X0146998Y0362172D01*
X0146992Y0362012D01*
X0146982Y0361851D01*
X0146968Y0361691D01*
X0146950Y0361531D01*
X0146929Y0361372D01*
X0146903Y0361213D01*
X0146873Y0361055D01*
X0146840Y0360898D01*
X0146802Y0360741D01*
X0146761Y0360586D01*
X0146716Y0360432D01*
X0146667Y0360279D01*
X0146614Y0360127D01*
X0146558Y0359976D01*
X0146497Y0359827D01*
X0146434Y0359679D01*
X0146366Y0359533D01*
X0146295Y0359389D01*
X0146221Y0359247D01*
X0146143Y0359106D01*
X0146061Y0358968D01*
X0145976Y0358831D01*
X0145888Y0358697D01*
X0145796Y0358565D01*
X0145701Y0358435D01*
X0145603Y0358307D01*
X0145502Y0358182D01*
X0145398Y0358060D01*
X0145291Y0357940D01*
X0145181Y0357823D01*
X0145068Y0357708D01*
X0144952Y0357597D01*
X0144833Y0357488D01*
X0144712Y0357383D01*
X0144588Y0357280D01*
X0144462Y0357180D01*
X0144334Y0357084D01*
X0144203Y0356991D01*
X0144069Y0356901D01*
X0143934Y0356814D01*
X0143796Y0356731D01*
X0143657Y0356651D01*
X0143515Y0356575D01*
X0143372Y0356502D01*
X0143227Y0356433D01*
X0143080Y0356367D01*
X0142932Y0356305D01*
X0142782Y0356247D01*
X0142631Y0356192D01*
X0142478Y0356141D01*
X0142324Y0356094D01*
X0142169Y0356051D01*
X0142013Y0356012D01*
X0141857Y0355976D01*
X0141699Y0355945D01*
X0141541Y0355917D01*
X0141382Y0355893D01*
X0141222Y0355873D01*
X0141062Y0355857D01*
X0140902Y0355845D01*
X0140741Y0355837D01*
X0140580Y0355833D01*
X0140420Y0355833D01*
X0140259Y0355837D01*
X0140098Y0355845D01*
X0139938Y0355857D01*
X0139778Y0355873D01*
X0139618Y0355893D01*
X0139459Y0355917D01*
X0139301Y0355945D01*
X0139143Y0355976D01*
X0138987Y0356012D01*
X0138831Y0356051D01*
X0138676Y0356094D01*
X0138522Y0356141D01*
X0138369Y0356192D01*
X0138218Y0356247D01*
X0138068Y0356305D01*
X0137920Y0356367D01*
X0137773Y0356433D01*
X0137628Y0356502D01*
X0137485Y0356575D01*
X0137343Y0356651D01*
X0137204Y0356731D01*
X0137066Y0356814D01*
X0136931Y0356901D01*
X0136797Y0356991D01*
X0136666Y0357084D01*
X0136538Y0357180D01*
X0136412Y0357280D01*
X0136288Y0357383D01*
X0136167Y0357488D01*
X0136048Y0357597D01*
X0135932Y0357708D01*
X0135819Y0357823D01*
X0135709Y0357940D01*
X0135602Y0358060D01*
X0135498Y0358182D01*
X0135397Y0358307D01*
X0135299Y0358435D01*
X0135204Y0358565D01*
X0135112Y0358697D01*
X0135024Y0358831D01*
X0134939Y0358968D01*
X0134857Y0359106D01*
X0134779Y0359247D01*
X0134705Y0359389D01*
X0134634Y0359533D01*
X0134566Y0359679D01*
X0134503Y0359827D01*
X0134442Y0359976D01*
X0134386Y0360127D01*
X0134333Y0360279D01*
X0134284Y0360432D01*
X0134239Y0360586D01*
X0134198Y0360741D01*
X0134160Y0360898D01*
X0134127Y0361055D01*
X0134097Y0361213D01*
X0134071Y0361372D01*
X0134050Y0361531D01*
X0134032Y0361691D01*
X0134018Y0361851D01*
X0134008Y0362012D01*
X0134002Y0362172D01*
X0134000Y0362333D01*
X0112000Y0362333D02*
X0112002Y0362494D01*
X0112008Y0362654D01*
X0112018Y0362815D01*
X0112032Y0362975D01*
X0112050Y0363135D01*
X0112071Y0363294D01*
X0112097Y0363453D01*
X0112127Y0363611D01*
X0112160Y0363768D01*
X0112198Y0363925D01*
X0112239Y0364080D01*
X0112284Y0364234D01*
X0112333Y0364387D01*
X0112386Y0364539D01*
X0112442Y0364690D01*
X0112503Y0364839D01*
X0112566Y0364987D01*
X0112634Y0365133D01*
X0112705Y0365277D01*
X0112779Y0365419D01*
X0112857Y0365560D01*
X0112939Y0365698D01*
X0113024Y0365835D01*
X0113112Y0365969D01*
X0113204Y0366101D01*
X0113299Y0366231D01*
X0113397Y0366359D01*
X0113498Y0366484D01*
X0113602Y0366606D01*
X0113709Y0366726D01*
X0113819Y0366843D01*
X0113932Y0366958D01*
X0114048Y0367069D01*
X0114167Y0367178D01*
X0114288Y0367283D01*
X0114412Y0367386D01*
X0114538Y0367486D01*
X0114666Y0367582D01*
X0114797Y0367675D01*
X0114931Y0367765D01*
X0115066Y0367852D01*
X0115204Y0367935D01*
X0115343Y0368015D01*
X0115485Y0368091D01*
X0115628Y0368164D01*
X0115773Y0368233D01*
X0115920Y0368299D01*
X0116068Y0368361D01*
X0116218Y0368419D01*
X0116369Y0368474D01*
X0116522Y0368525D01*
X0116676Y0368572D01*
X0116831Y0368615D01*
X0116987Y0368654D01*
X0117143Y0368690D01*
X0117301Y0368721D01*
X0117459Y0368749D01*
X0117618Y0368773D01*
X0117778Y0368793D01*
X0117938Y0368809D01*
X0118098Y0368821D01*
X0118259Y0368829D01*
X0118420Y0368833D01*
X0118580Y0368833D01*
X0118741Y0368829D01*
X0118902Y0368821D01*
X0119062Y0368809D01*
X0119222Y0368793D01*
X0119382Y0368773D01*
X0119541Y0368749D01*
X0119699Y0368721D01*
X0119857Y0368690D01*
X0120013Y0368654D01*
X0120169Y0368615D01*
X0120324Y0368572D01*
X0120478Y0368525D01*
X0120631Y0368474D01*
X0120782Y0368419D01*
X0120932Y0368361D01*
X0121080Y0368299D01*
X0121227Y0368233D01*
X0121372Y0368164D01*
X0121515Y0368091D01*
X0121657Y0368015D01*
X0121796Y0367935D01*
X0121934Y0367852D01*
X0122069Y0367765D01*
X0122203Y0367675D01*
X0122334Y0367582D01*
X0122462Y0367486D01*
X0122588Y0367386D01*
X0122712Y0367283D01*
X0122833Y0367178D01*
X0122952Y0367069D01*
X0123068Y0366958D01*
X0123181Y0366843D01*
X0123291Y0366726D01*
X0123398Y0366606D01*
X0123502Y0366484D01*
X0123603Y0366359D01*
X0123701Y0366231D01*
X0123796Y0366101D01*
X0123888Y0365969D01*
X0123976Y0365835D01*
X0124061Y0365698D01*
X0124143Y0365560D01*
X0124221Y0365419D01*
X0124295Y0365277D01*
X0124366Y0365133D01*
X0124434Y0364987D01*
X0124497Y0364839D01*
X0124558Y0364690D01*
X0124614Y0364539D01*
X0124667Y0364387D01*
X0124716Y0364234D01*
X0124761Y0364080D01*
X0124802Y0363925D01*
X0124840Y0363768D01*
X0124873Y0363611D01*
X0124903Y0363453D01*
X0124929Y0363294D01*
X0124950Y0363135D01*
X0124968Y0362975D01*
X0124982Y0362815D01*
X0124992Y0362654D01*
X0124998Y0362494D01*
X0125000Y0362333D01*
X0124998Y0362172D01*
X0124992Y0362012D01*
X0124982Y0361851D01*
X0124968Y0361691D01*
X0124950Y0361531D01*
X0124929Y0361372D01*
X0124903Y0361213D01*
X0124873Y0361055D01*
X0124840Y0360898D01*
X0124802Y0360741D01*
X0124761Y0360586D01*
X0124716Y0360432D01*
X0124667Y0360279D01*
X0124614Y0360127D01*
X0124558Y0359976D01*
X0124497Y0359827D01*
X0124434Y0359679D01*
X0124366Y0359533D01*
X0124295Y0359389D01*
X0124221Y0359247D01*
X0124143Y0359106D01*
X0124061Y0358968D01*
X0123976Y0358831D01*
X0123888Y0358697D01*
X0123796Y0358565D01*
X0123701Y0358435D01*
X0123603Y0358307D01*
X0123502Y0358182D01*
X0123398Y0358060D01*
X0123291Y0357940D01*
X0123181Y0357823D01*
X0123068Y0357708D01*
X0122952Y0357597D01*
X0122833Y0357488D01*
X0122712Y0357383D01*
X0122588Y0357280D01*
X0122462Y0357180D01*
X0122334Y0357084D01*
X0122203Y0356991D01*
X0122069Y0356901D01*
X0121934Y0356814D01*
X0121796Y0356731D01*
X0121657Y0356651D01*
X0121515Y0356575D01*
X0121372Y0356502D01*
X0121227Y0356433D01*
X0121080Y0356367D01*
X0120932Y0356305D01*
X0120782Y0356247D01*
X0120631Y0356192D01*
X0120478Y0356141D01*
X0120324Y0356094D01*
X0120169Y0356051D01*
X0120013Y0356012D01*
X0119857Y0355976D01*
X0119699Y0355945D01*
X0119541Y0355917D01*
X0119382Y0355893D01*
X0119222Y0355873D01*
X0119062Y0355857D01*
X0118902Y0355845D01*
X0118741Y0355837D01*
X0118580Y0355833D01*
X0118420Y0355833D01*
X0118259Y0355837D01*
X0118098Y0355845D01*
X0117938Y0355857D01*
X0117778Y0355873D01*
X0117618Y0355893D01*
X0117459Y0355917D01*
X0117301Y0355945D01*
X0117143Y0355976D01*
X0116987Y0356012D01*
X0116831Y0356051D01*
X0116676Y0356094D01*
X0116522Y0356141D01*
X0116369Y0356192D01*
X0116218Y0356247D01*
X0116068Y0356305D01*
X0115920Y0356367D01*
X0115773Y0356433D01*
X0115628Y0356502D01*
X0115485Y0356575D01*
X0115343Y0356651D01*
X0115204Y0356731D01*
X0115066Y0356814D01*
X0114931Y0356901D01*
X0114797Y0356991D01*
X0114666Y0357084D01*
X0114538Y0357180D01*
X0114412Y0357280D01*
X0114288Y0357383D01*
X0114167Y0357488D01*
X0114048Y0357597D01*
X0113932Y0357708D01*
X0113819Y0357823D01*
X0113709Y0357940D01*
X0113602Y0358060D01*
X0113498Y0358182D01*
X0113397Y0358307D01*
X0113299Y0358435D01*
X0113204Y0358565D01*
X0113112Y0358697D01*
X0113024Y0358831D01*
X0112939Y0358968D01*
X0112857Y0359106D01*
X0112779Y0359247D01*
X0112705Y0359389D01*
X0112634Y0359533D01*
X0112566Y0359679D01*
X0112503Y0359827D01*
X0112442Y0359976D01*
X0112386Y0360127D01*
X0112333Y0360279D01*
X0112284Y0360432D01*
X0112239Y0360586D01*
X0112198Y0360741D01*
X0112160Y0360898D01*
X0112127Y0361055D01*
X0112097Y0361213D01*
X0112071Y0361372D01*
X0112050Y0361531D01*
X0112032Y0361691D01*
X0112018Y0361851D01*
X0112008Y0362012D01*
X0112002Y0362172D01*
X0112000Y0362333D01*
X0032000Y0362333D02*
X0032002Y0362494D01*
X0032008Y0362654D01*
X0032018Y0362815D01*
X0032032Y0362975D01*
X0032050Y0363135D01*
X0032071Y0363294D01*
X0032097Y0363453D01*
X0032127Y0363611D01*
X0032160Y0363768D01*
X0032198Y0363925D01*
X0032239Y0364080D01*
X0032284Y0364234D01*
X0032333Y0364387D01*
X0032386Y0364539D01*
X0032442Y0364690D01*
X0032503Y0364839D01*
X0032566Y0364987D01*
X0032634Y0365133D01*
X0032705Y0365277D01*
X0032779Y0365419D01*
X0032857Y0365560D01*
X0032939Y0365698D01*
X0033024Y0365835D01*
X0033112Y0365969D01*
X0033204Y0366101D01*
X0033299Y0366231D01*
X0033397Y0366359D01*
X0033498Y0366484D01*
X0033602Y0366606D01*
X0033709Y0366726D01*
X0033819Y0366843D01*
X0033932Y0366958D01*
X0034048Y0367069D01*
X0034167Y0367178D01*
X0034288Y0367283D01*
X0034412Y0367386D01*
X0034538Y0367486D01*
X0034666Y0367582D01*
X0034797Y0367675D01*
X0034931Y0367765D01*
X0035066Y0367852D01*
X0035204Y0367935D01*
X0035343Y0368015D01*
X0035485Y0368091D01*
X0035628Y0368164D01*
X0035773Y0368233D01*
X0035920Y0368299D01*
X0036068Y0368361D01*
X0036218Y0368419D01*
X0036369Y0368474D01*
X0036522Y0368525D01*
X0036676Y0368572D01*
X0036831Y0368615D01*
X0036987Y0368654D01*
X0037143Y0368690D01*
X0037301Y0368721D01*
X0037459Y0368749D01*
X0037618Y0368773D01*
X0037778Y0368793D01*
X0037938Y0368809D01*
X0038098Y0368821D01*
X0038259Y0368829D01*
X0038420Y0368833D01*
X0038580Y0368833D01*
X0038741Y0368829D01*
X0038902Y0368821D01*
X0039062Y0368809D01*
X0039222Y0368793D01*
X0039382Y0368773D01*
X0039541Y0368749D01*
X0039699Y0368721D01*
X0039857Y0368690D01*
X0040013Y0368654D01*
X0040169Y0368615D01*
X0040324Y0368572D01*
X0040478Y0368525D01*
X0040631Y0368474D01*
X0040782Y0368419D01*
X0040932Y0368361D01*
X0041080Y0368299D01*
X0041227Y0368233D01*
X0041372Y0368164D01*
X0041515Y0368091D01*
X0041657Y0368015D01*
X0041796Y0367935D01*
X0041934Y0367852D01*
X0042069Y0367765D01*
X0042203Y0367675D01*
X0042334Y0367582D01*
X0042462Y0367486D01*
X0042588Y0367386D01*
X0042712Y0367283D01*
X0042833Y0367178D01*
X0042952Y0367069D01*
X0043068Y0366958D01*
X0043181Y0366843D01*
X0043291Y0366726D01*
X0043398Y0366606D01*
X0043502Y0366484D01*
X0043603Y0366359D01*
X0043701Y0366231D01*
X0043796Y0366101D01*
X0043888Y0365969D01*
X0043976Y0365835D01*
X0044061Y0365698D01*
X0044143Y0365560D01*
X0044221Y0365419D01*
X0044295Y0365277D01*
X0044366Y0365133D01*
X0044434Y0364987D01*
X0044497Y0364839D01*
X0044558Y0364690D01*
X0044614Y0364539D01*
X0044667Y0364387D01*
X0044716Y0364234D01*
X0044761Y0364080D01*
X0044802Y0363925D01*
X0044840Y0363768D01*
X0044873Y0363611D01*
X0044903Y0363453D01*
X0044929Y0363294D01*
X0044950Y0363135D01*
X0044968Y0362975D01*
X0044982Y0362815D01*
X0044992Y0362654D01*
X0044998Y0362494D01*
X0045000Y0362333D01*
X0044998Y0362172D01*
X0044992Y0362012D01*
X0044982Y0361851D01*
X0044968Y0361691D01*
X0044950Y0361531D01*
X0044929Y0361372D01*
X0044903Y0361213D01*
X0044873Y0361055D01*
X0044840Y0360898D01*
X0044802Y0360741D01*
X0044761Y0360586D01*
X0044716Y0360432D01*
X0044667Y0360279D01*
X0044614Y0360127D01*
X0044558Y0359976D01*
X0044497Y0359827D01*
X0044434Y0359679D01*
X0044366Y0359533D01*
X0044295Y0359389D01*
X0044221Y0359247D01*
X0044143Y0359106D01*
X0044061Y0358968D01*
X0043976Y0358831D01*
X0043888Y0358697D01*
X0043796Y0358565D01*
X0043701Y0358435D01*
X0043603Y0358307D01*
X0043502Y0358182D01*
X0043398Y0358060D01*
X0043291Y0357940D01*
X0043181Y0357823D01*
X0043068Y0357708D01*
X0042952Y0357597D01*
X0042833Y0357488D01*
X0042712Y0357383D01*
X0042588Y0357280D01*
X0042462Y0357180D01*
X0042334Y0357084D01*
X0042203Y0356991D01*
X0042069Y0356901D01*
X0041934Y0356814D01*
X0041796Y0356731D01*
X0041657Y0356651D01*
X0041515Y0356575D01*
X0041372Y0356502D01*
X0041227Y0356433D01*
X0041080Y0356367D01*
X0040932Y0356305D01*
X0040782Y0356247D01*
X0040631Y0356192D01*
X0040478Y0356141D01*
X0040324Y0356094D01*
X0040169Y0356051D01*
X0040013Y0356012D01*
X0039857Y0355976D01*
X0039699Y0355945D01*
X0039541Y0355917D01*
X0039382Y0355893D01*
X0039222Y0355873D01*
X0039062Y0355857D01*
X0038902Y0355845D01*
X0038741Y0355837D01*
X0038580Y0355833D01*
X0038420Y0355833D01*
X0038259Y0355837D01*
X0038098Y0355845D01*
X0037938Y0355857D01*
X0037778Y0355873D01*
X0037618Y0355893D01*
X0037459Y0355917D01*
X0037301Y0355945D01*
X0037143Y0355976D01*
X0036987Y0356012D01*
X0036831Y0356051D01*
X0036676Y0356094D01*
X0036522Y0356141D01*
X0036369Y0356192D01*
X0036218Y0356247D01*
X0036068Y0356305D01*
X0035920Y0356367D01*
X0035773Y0356433D01*
X0035628Y0356502D01*
X0035485Y0356575D01*
X0035343Y0356651D01*
X0035204Y0356731D01*
X0035066Y0356814D01*
X0034931Y0356901D01*
X0034797Y0356991D01*
X0034666Y0357084D01*
X0034538Y0357180D01*
X0034412Y0357280D01*
X0034288Y0357383D01*
X0034167Y0357488D01*
X0034048Y0357597D01*
X0033932Y0357708D01*
X0033819Y0357823D01*
X0033709Y0357940D01*
X0033602Y0358060D01*
X0033498Y0358182D01*
X0033397Y0358307D01*
X0033299Y0358435D01*
X0033204Y0358565D01*
X0033112Y0358697D01*
X0033024Y0358831D01*
X0032939Y0358968D01*
X0032857Y0359106D01*
X0032779Y0359247D01*
X0032705Y0359389D01*
X0032634Y0359533D01*
X0032566Y0359679D01*
X0032503Y0359827D01*
X0032442Y0359976D01*
X0032386Y0360127D01*
X0032333Y0360279D01*
X0032284Y0360432D01*
X0032239Y0360586D01*
X0032198Y0360741D01*
X0032160Y0360898D01*
X0032127Y0361055D01*
X0032097Y0361213D01*
X0032071Y0361372D01*
X0032050Y0361531D01*
X0032032Y0361691D01*
X0032018Y0361851D01*
X0032008Y0362012D01*
X0032002Y0362172D01*
X0032000Y0362333D01*
M02*
